<?xml version="1.0" encoding="UTF-8" standalone="no"?>
<!-- Created with Inkscape (http://www.inkscape.org/) -->

<svg
   version="1.1"
   id="svg1019"
   width="910.22223"
   height="910.22223"
   viewBox="0 0 910.22223 910.22223"
   sodipodi:docname="chest-light.svg"
   inkscape:version="1.1.1 (3bf5ae0d25, 2021-09-20)"
   xmlns:inkscape="http://www.inkscape.org/namespaces/inkscape"
   xmlns:sodipodi="http://sodipodi.sourceforge.net/DTD/sodipodi-0.dtd"
   xmlns="http://www.w3.org/2000/svg"
   xmlns:svg="http://www.w3.org/2000/svg">
  <defs
     id="defs1023" />
  <sodipodi:namedview
     id="namedview1021"
     pagecolor="#ffffff"
     bordercolor="#666666"
     borderopacity="1.0"
     inkscape:pageshadow="2"
     inkscape:pageopacity="0.0"
     inkscape:pagecheckerboard="0"
     showgrid="false"
     inkscape:zoom="0.88110351"
     inkscape:cx="455.67858"
     inkscape:cy="455.67858"
     inkscape:window-width="1920"
     inkscape:window-height="991"
     inkscape:window-x="-9"
     inkscape:window-y="-9"
     inkscape:window-maximized="1"
     inkscape:current-layer="g1025" />
  <g
     inkscape:groupmode="layer"
     inkscape:label="Image"
     id="g1025">
    <path
       style="fill:#f9f9f9;stroke-width:1.77778"
       d="M 28.444445,672.94532 V 464.11284 l 20.610425,-0.50085 20.610425,-0.50087 4.199611,-10.33041 c 12.197721,-30.00453 40.730944,-56.04737 74.568124,-68.05984 7.33961,-2.60561 13.34475,-5.49836 13.34475,-6.42833 0,-0.92996 -30.09057,-42.62623 -66.86793,-92.65837 L 28.04192,194.66667 29.051168,176 C 32.623195,109.93318 77.85906,53.912888 144.17398,33.431417 L 157.33333,29.367131 448,28.8525 c 259.03307,-0.458622 292.18292,-0.209321 304.59885,2.29072 29.87243,6.015043 55.14791,18.754868 76.81015,38.715289 30.06989,27.707531 46.76839,61.584061 51.01691,103.498761 l 1.98459,19.5795 -67.03951,92.14549 c -36.87171,50.68002 -67.21408,92.98349 -67.42746,94.00773 -0.21339,1.02424 3.52558,2.89407 8.30881,4.15519 21.44454,5.65395 47.08475,22.80841 62.1445,41.57745 8.30626,10.35215 20.6975,32.43073 20.7088,36.89873 0.004,1.55086 5.93652,2.30801 20.89437,2.66666 l 20.88889,0.50087 0.45178,208.44445 0.45179,208.44445 H 455.11846 28.444445 Z M 496,564.41168 v -50.69943 l -41.33333,0.47721 -41.33333,0.47721 -0.47213,50.22222 -0.47214,50.22223 H 454.19455 496 Z m 288.00001,-102.3054 c 0,-1.04155 -4.38095,-6.27465 -9.73542,-11.62914 -13.49422,-13.49422 -28.104,-20.079 -48.87198,-22.02713 -29.13639,-2.73312 -41.09419,-9.52423 -57.66876,-32.75143 -13.52472,-18.95319 -30.09885,-29.53874 -52.17784,-33.32485 -11.30341,-1.93833 -14.41905,-1.7498 -31.57233,1.9104 -22.47122,4.79497 -30.55227,4.16928 -46.6876,-3.61481 -8.32641,-4.01689 -13.45336,-8.16887 -20.20108,-16.35954 -11.56889,-14.04284 -19.84098,-20.66309 -33.84311,-27.08505 -9.95737,-4.56686 -13.17163,-5.14727 -28.13078,-5.07961 -21.34074,0.0965 -32.58071,4.21492 -50.32188,18.43815 -15.73941,12.6184 -20.74793,15.23828 -33.71397,17.63519 -14.1397,2.61386 -26.78955,-0.077 -45.5114,-9.68128 -18.20841,-9.34084 -31.80171,-11.97394 -49.13947,-9.5186 -15.38449,2.1787 -29.28857,9.13013 -38.97509,19.48581 -8.80364,9.41181 -12.4467,15.94738 -20.42647,36.64477 -9.33474,24.2118 -23.44393,37.14738 -50.25761,46.07715 -17.36214,5.78212 -33.66525,17.83577 -41.07578,30.36921 C 124.49672,463.61279 177.3903,464 454.13389,464 c 232.18948,0 329.86612,-0.56074 329.86612,-1.89372 z M 827.4487,157.77778 C 816.02578,120.79097 793.65809,97.464392 755.64107,82.891869 L 745.77778,79.111112 459.96882,78.635071 C 142.02783,78.10551 163.16504,77.345949 136.88889,90.244881 118.69867,99.174438 99.366751,118.48183 90.185619,136.88889 86.527875,144.22222 83.039761,152.82222 82.434255,156 l -1.100921,5.77778 H 455.0087 828.68406 Z"
       id="path1176" />
  </g>
</svg>
