<?xml version="1.0" encoding="UTF-8" standalone="no"?>
<!-- Created with Inkscape (http://www.inkscape.org/) -->

<svg
   version="1.1"
   id="svg1317"
   width="546.1333"
   height="546.1333"
   viewBox="0 0 546.1333 546.1333"
   sodipodi:docname="pirate-skull-light.svg"
   inkscape:version="1.1.1 (3bf5ae0d25, 2021-09-20)"
   xmlns:inkscape="http://www.inkscape.org/namespaces/inkscape"
   xmlns:sodipodi="http://sodipodi.sourceforge.net/DTD/sodipodi-0.dtd"
   xmlns="http://www.w3.org/2000/svg"
   xmlns:svg="http://www.w3.org/2000/svg">
  <defs
     id="defs1321" />
  <sodipodi:namedview
     id="namedview1319"
     pagecolor="#ffffff"
     bordercolor="#666666"
     borderopacity="1.0"
     inkscape:pageshadow="2"
     inkscape:pageopacity="0.0"
     inkscape:pagecheckerboard="0"
     showgrid="false"
     inkscape:zoom="1.4685059"
     inkscape:cx="272.72617"
     inkscape:cy="272.72617"
     inkscape:window-width="1920"
     inkscape:window-height="991"
     inkscape:window-x="-9"
     inkscape:window-y="-9"
     inkscape:window-maximized="1"
     inkscape:current-layer="g1323" />
  <g
     inkscape:groupmode="layer"
     inkscape:label="Image"
     id="g1323">
    <path
       style="fill:#f9f9f9;stroke-width:1.06667"
       d="m 161.85889,527.7333 c -0.34715,-11.76024 -1.10241,-20.1321 -2.09296,-23.2 -3.30305,-10.23 -7.80021,-17.63432 -15.23261,-25.07962 -12.40967,-12.43123 -25.95771,-17.53164 -46.666659,-17.56852 l -10.4,-0.0185 V 398.39998 334.93331 H 68.978745 50.490829 l -7.517654,-24.8 -7.517654,-24.79999 118.805569,-0.27129 c 65.34306,-0.1492 172.26806,-0.1492 237.61112,0 l 118.80557,0.27129 -7.51765,24.79999 -7.51765,24.8 h -18.48793 -18.48791 v 63.46667 63.46666 l -10.4,0.0186 c -20.70895,0.0369 -34.25699,5.13729 -46.66666,17.56852 -7.4324,7.4453 -11.92956,14.84962 -15.23261,25.07963 -0.99055,3.06789 -1.74581,11.43975 -2.09296,23.19999 l -0.54315,18.4 h -19.06564 -19.06564 v -16.53333 -16.53333 h -16 -16 v 16.53333 16.53333 h -12.26667 -12.26666 v -16.53333 -16.53333 h -16 -16 v 16.53333 16.53333 h -12.26666 -12.26667 v -16.53333 -16.53333 h -16 -16 v 16.53333 16.53333 h -19.06564 -19.06564 l -0.54315,-18.4 z m 127.20776,-88.26666 v -16 h -16 -16 v 16 16 h 16 16 z m -87.8546,-22.73401 c 7.218,-2.64883 11.27726,-5.00996 17.11069,-9.95274 11.66121,-9.88079 18.48808,-24.55613 18.46458,-39.69228 -0.0154,-9.87096 -1.78842,-16.96439 -6.40609,-25.62801 l -3.47847,-6.52629 h -42.50292 -42.50291 l -2.69343,4.07004 c -6.84569,10.34455 -9.66806,27.27092 -6.56463,39.36961 4.681,18.24881 18.44445,33.32887 35.35303,38.73491 9.68899,3.09778 24.20294,2.93383 33.22015,-0.37524 z m 178.24451,-0.0877 c 16.57107,-5.8979 29.44735,-20.37592 34.03787,-38.27199 3.10343,-12.09869 0.28106,-29.02506 -6.56463,-39.36961 l -2.69343,-4.07004 h -42.50291 -42.50292 l -3.47847,6.52629 c -4.61767,8.66362 -6.39077,15.75705 -6.40609,25.62801 -0.0409,26.3402 20.3386,49.17448 46.38733,51.97488 7.6022,0.81728 17.4558,-0.18686 23.72325,-2.41754 z M 25.538501,252.53558 c -0.03382,-0.14792 -5.473892,-18.02893 -12.08904,-39.73559 L 1.4219185,173.33332 44.177623,172.71515 c 30.353171,-0.43885 43.993375,-1.01535 47.022371,-1.98738 12.016326,-3.85616 23.444116,-11.71771 30.021966,-20.65308 6.63057,-9.00699 8.64803,-14.20081 12.24615,-31.5269 7.15983,-34.47677 19.4694,-57.494036 42.43602,-79.349761 20.38947,-19.403217 44.70099,-31.6834177 73.69585,-37.2251386 8.94801,-1.71021278 37.98533,-1.71021278 46.93334,0 28.99486,5.5417209 53.30638,17.8219216 73.69585,37.2251386 22.96662,21.855725 35.27619,44.872991 42.43602,79.349761 3.59812,17.32609 5.61558,22.51991 12.24615,31.5269 6.57785,8.93537 18.00564,16.79692 30.02197,20.65308 3.02899,0.97203 16.6692,1.54853 47.02237,1.98738 l 42.7557,0.61817 -11.96039,39.46667 -11.96039,39.46666 -247.5953,0.26893 c -136.17742,0.1479 -247.622975,0.1479 -247.656799,0 z m 235.511459,-79.98486 12.01669,-11.9826 12.26583,12.23104 12.26584,12.23104 11.20201,-11.1639 11.20202,-11.16389 -11.73452,-11.7679 c -6.45398,-6.47234 -11.73451,-12.23288 -11.73451,-12.80119 0,-0.5683 5.28053,-6.32884 11.73451,-12.80118 l 11.73452,-11.7679 -11.20202,-11.1639 -11.20201,-11.163887 -12.26584,12.231037 -12.26583,12.23104 -12.26583,-12.23104 -12.26584,-12.231037 -11.20201,11.163887 -11.20202,11.1639 11.73452,11.7679 c 6.45398,6.47234 11.73451,12.24858 11.73451,12.83606 0,0.5875 -5.27999,6.3318 -11.73332,12.76511 l -11.73332,11.69694 10.91426,10.95154 c 6.00285,6.02334 11.15533,10.95153 11.44997,10.95153 0.29464,0 5.94321,-5.39217 12.55239,-11.9826 z"
       id="path1384" />
  </g>
</svg>
