<?xml version="1.0" encoding="UTF-8" standalone="no"?>
<!-- Created with Inkscape (http://www.inkscape.org/) -->

<svg
   version="1.1"
   id="svg824"
   width="682.66669"
   height="682.66669"
   viewBox="0 0 682.66669 682.66669"
   sodipodi:docname="pirate.svg"
   inkscape:version="1.1.1 (3bf5ae0d25, 2021-09-20)"
   xmlns:inkscape="http://www.inkscape.org/namespaces/inkscape"
   xmlns:sodipodi="http://sodipodi.sourceforge.net/DTD/sodipodi-0.dtd"
   xmlns="http://www.w3.org/2000/svg"
   xmlns:svg="http://www.w3.org/2000/svg">
  <defs
     id="defs828" />
  <sodipodi:namedview
     id="namedview826"
     pagecolor="#ffffff"
     bordercolor="#666666"
     borderopacity="1.0"
     inkscape:pageshadow="2"
     inkscape:pageopacity="0.0"
     inkscape:pagecheckerboard="0"
     showgrid="false"
     inkscape:zoom="0.40033706"
     inkscape:cx="-36.21948"
     inkscape:cy="196.08477"
     inkscape:window-width="1920"
     inkscape:window-height="991"
     inkscape:window-x="-9"
     inkscape:window-y="-9"
     inkscape:window-maximized="1"
     inkscape:current-layer="g830" />
  <g
     inkscape:groupmode="layer"
     inkscape:label="Image"
     id="g830">
    <path
       style="fill:#000000;stroke-width:1.33333"
       d="m 345.55565,673.29139 c -54.33247,-6.98864 -102.23127,-25.93832 -145.72442,-57.65133 -26.09999,-19.0308 -38.96153,-37.34495 -46.05451,-65.57914 -1.32773,-5.28513 -1.84345,-10.75204 -1.33449,-14.14608 l 0.82956,-5.53189 -7.05362,-2.98468 c -16.39968,-6.93936 -47.38859,-23.29583 -51.50378,-27.18456 -8.98058,-8.48638 -13.05089,-22.89603 -9.51364,-33.68006 0.93664,-2.85554 6.74977,-13.59189 12.91807,-23.85856 10.62608,-17.68631 36.27032,-68.07297 40.90446,-80.37045 l 2.14939,-5.70379 -11.67072,7.84336 c -13.41741,9.01723 -49.45286,30.23999 -60.47992,35.61911 -8.94591,4.3639 -15.0375,3.83149 -21.42106,-1.87223 -3.283,-2.93335 -4.2336,-5.00289 -4.7135,-10.26185 -0.5386,-5.90098 0.1568,-8.11596 6.6726,-21.25415 7.29607,-14.71147 19.10023,-33.51312 28.00131,-44.60044 2.62005,-3.26358 4.51603,-6.33456 4.21329,-6.8244 -0.30274,-0.48986 -4.31386,-1.3006 -8.9136,-1.80168 -20.82024,-2.26807 -59.7748,-14.16344 -65.2459997,-19.92387 -5.4535,-5.74169 -6.3832,-11.77859 -2.9337,-19.04795 3.4292,-7.22641 4.6933,-7.69452 62.4831897,-23.13757 23.26442,-6.21688 35.94847,-8.20859 55.33333,-8.68868 l 19.33334,-0.47883 0.29781,-5.08162 c 3.81149,-65.03713 31.33783,-123.49238 79.03552,-167.840803 28.71635,-26.699922 64.79643,-46.468002 104.00001,-56.981032 63.30844,-16.97711 132.6747,-5.75186 189.00207,30.58543 53.83142,34.727107 92.74072,89.329335 106.8476,149.941405 9.37114,40.26432 8.88483,85.55458 -1.33126,123.98194 l -2.68564,10.1019 6.74248,16.90037 c 13.97916,35.03946 31.1614,70.38938 51.95799,106.89583 8.17232,14.34574 10.01936,20.42423 8.86056,29.15962 -2.13314,16.08037 -9.07971,22.50874 -41.33463,38.25113 -13.43564,6.55743 -25.05995,11.92259 -25.83178,11.92259 -2.19809,0 -2.7785,1.6548 -4.952,14.11851 -5.07442,29.09893 -19.30308,50.92498 -45.94205,70.47285 -44.69019,32.79398 -91.35875,51.38358 -147.27795,58.6656 -19.1412,2.49264 -54.39092,2.50508 -73.66431,0.026 z m 76.83304,-126.11908 c 11.50852,-1.97073 15.90779,-4.35613 18.21425,-9.87628 3.86194,-9.24292 2.18369,-12.62094 -6.2703,-12.62094 -13.14712,0 -38.15911,-8.33676 -47.71228,-15.90301 l -5.3045,-4.20124 -6.6627,4.78667 c -11.43422,8.21468 -28.42507,13.53149 -51.15526,16.00762 -7.42989,0.80939 -7.66667,0.9578 -7.66667,4.80546 0,5.14773 3.23576,11.32584 7.0138,13.39156 6.7295,3.67948 19.66791,4.85417 54.87699,4.98232 21.1895,0.0771 39.48548,-0.48493 44.66667,-1.37216 z M 261.16457,454.64349 c 10.5703,-3.1822 21.36628,-8.92621 32.43453,-17.25684 16.58901,-12.48591 32.73501,-17.61647 48.01485,-15.25725 10.90305,1.68344 25.50062,8.9578 33.19187,16.54041 l 6.22599,6.13804 5.35435,-5.35434 c 20.77476,-20.77477 51.35129,-23.48219 75.64499,-6.69807 4.29005,2.96392 11.56424,7.99211 16.16485,11.17372 4.937,3.41427 13.13271,7.34767 20,9.59869 9.86533,3.23375 13.76487,3.80794 25.63524,3.77466 20.29136,-0.0569 41.1424,-5.55874 48.98339,-12.92496 3.96988,-3.72951 3.80943,-5.93024 -0.98339,-13.48773 -6.61316,-10.42788 -4.39926,-19.09628 5.50463,-21.5531 3.25681,-0.80791 3.57035,-1.54555 4.43419,-10.43216 1.42505,-14.66011 5.82197,-38.85399 9.58385,-52.73482 1.86401,-6.87795 3.07836,-14.07795 2.69856,-16 -0.37981,-1.92207 1.11697,-10.53885 3.32619,-19.14841 2.20921,-8.60958 3.81481,-16.22384 3.568,-16.92059 -0.24682,-0.69676 -9.26054,5.33716 -20.0305,13.40868 l -19.58176,14.67551 -0.85713,7.57841 c -0.47144,4.16813 -2.04319,12.05735 -3.49277,17.5316 -9.66682,36.50571 -42.72927,63.33578 -81.54501,66.17348 -42.16164,3.08232 -80.97211,-29.3344 -84.75633,-70.79333 l -0.85192,-9.33334 -41.08722,-25.73789 -41.08721,-25.73789 -22.54567,6.0799 c -29.37832,7.92248 -63.63855,19.07195 -88.63706,28.84558 l -20.0238,7.82868 -1.4513,6.2553 c -1.19238,5.13931 -1.01535,7.93927 0.99232,15.69415 3.72013,14.3696 7.538,34.62528 9.31657,49.42906 1.42853,11.89021 2.00897,13.70489 5.39539,16.86828 4.78376,4.4687 4.92002,9.533 0.43412,16.1346 -9.51638,14.0046 -3.81744,19.67743 26.69385,26.57159 12.73001,2.8764 32.06898,2.46152 43.33334,-0.92962 z m 2.40302,-49.09003 c -31.58389,-13.2651 -39.10621,-53.73524 -14.17461,-76.25945 9.11128,-8.2315 18.65884,-11.87714 31.10492,-11.87714 12.44608,0 21.99364,3.64564 31.10492,11.87714 23.91969,21.61001 17.68667,61.44301 -11.77159,75.22779 -10.66168,4.98905 -25.81477,5.42014 -36.26364,1.03166 z m 25.99396,-21.34642 c 5.83831,-2.43942 12.61095,-10.44154 13.68564,-16.17011 2.78051,-14.82143 -7.89797,-27.93327 -22.74929,-27.93327 -19.73657,0 -30.476,22.825 -17.62569,37.4607 7.08465,8.06897 17.23152,10.59441 26.68934,6.64268 z m 196.26969,3.98444 c 17.84841,-4.7797 35.52255,-18.70999 43.30912,-34.1351 4.35527,-8.62772 8.02421,-20.97067 8.02421,-26.99476 v -3.71987 h -62 -62 v 6.48468 c 0,34.15481 24.2772,59.90055 56.66667,60.09446 5.13333,0.0308 12.33333,-0.74749 16,-1.72941 z m -89.9909,-80.51639 c 0.005,-0.55 2.21055,-2.5 4.90119,-4.33334 l 4.89208,-3.33333 h 67.43215 c 37.08768,0 69.59459,0.46076 72.23758,1.02392 4.67268,0.99563 5.56717,0.44633 32.3837,-19.88632 l 27.57828,-20.91024 -0.3837,-10.78035 -0.38371,-10.78034 -12.66667,0.3635 c -49.46157,1.41936 -182.49647,19.72458 -241.91482,33.28679 l -10.58148,2.41521 27.20695,16.96726 c 14.96381,9.33197 27.67548,16.96724 28.24815,16.96724 0.57265,0 1.04529,-0.45 1.0503,-1 z M 221.83123,282.68875 c 89.3259,-30.12316 202.32793,-52.06216 332.37995,-64.53055 14.14229,-1.35585 26.12146,-2.8734 26.62038,-3.37232 1.36038,-1.36036 -3.24592,-22.17547 -8.58126,-38.77745 C 554.08098,119.47099 510.86119,68.441319 458.95301,42.238155 c -17.69964,-8.93475 -45.16747,-14.12711 -74.45511,-14.07458 -28.34618,0.0508 -52.13312,4.41134 -76.34369,13.99492 C 234.06836,71.48485 183.03371,133.38082 168.109,212.00843 c -3.92385,20.67202 -2.63309,81.18211 1.89643,88.90271 0.29128,0.49651 6.37125,-1.47823 13.51104,-4.38828 7.13979,-2.91005 24.38143,-9.1354 38.31476,-13.83411 z m -18.89501,-29.30164 c -4.89723,-2.11757 -7.10499,-5.58017 -7.10499,-11.14331 0,-5.53724 2.95041,-8.40267 16.66667,-16.18652 41.62069,-23.61941 86.80164,-40.17709 132.46147,-48.54381 26.54621,-4.86434 28.83969,-4.63574 32.93452,3.2828 1.70143,3.29018 1.80735,4.89933 0.56941,8.65032 -1.91372,5.79864 -5.71262,7.72965 -19.29873,9.80972 -22.88742,3.50413 -55.64668,12.3521 -80,21.60724 -13.73694,5.22053 -40.31858,17.90181 -55.09241,26.28287 -14.20644,8.0592 -15.82508,8.53713 -21.13594,6.24069 z m 8.16774,-70.65142 c -5.23204,-5.23202 -4.82634,-11.53532 1.14376,-17.77054 13.8218,-14.43562 48.1353,-31.93847 77.64555,-39.60595 24.82803,-6.45093 62.59477,-10.39243 70.03777,-7.30944 8.13744,3.37064 9.93622,14.44812 3.20578,19.74228 -2.46176,1.93642 -6.52454,2.68414 -18.46222,3.39785 -45.52803,2.72192 -84.01767,15.85003 -113.40976,38.68198 -9.37208,7.28029 -14.95182,8.07289 -20.16088,2.86382 z"
       id="path914" />
  </g>
</svg>
