<?xml version="1.0" encoding="UTF-8" standalone="no"?>
<!-- Created with Inkscape (http://www.inkscape.org/) -->

<svg
   version="1.1"
   id="svg1715"
   width="512"
   height="512"
   viewBox="0 0 512 512"
   sodipodi:docname="right-light.svg"
   inkscape:version="1.1.1 (3bf5ae0d25, 2021-09-20)"
   xmlns:inkscape="http://www.inkscape.org/namespaces/inkscape"
   xmlns:sodipodi="http://sodipodi.sourceforge.net/DTD/sodipodi-0.dtd"
   xmlns="http://www.w3.org/2000/svg"
   xmlns:svg="http://www.w3.org/2000/svg">
  <defs
     id="defs1719" />
  <sodipodi:namedview
     id="namedview1717"
     pagecolor="#ffffff"
     bordercolor="#666666"
     borderopacity="1.0"
     inkscape:pageshadow="2"
     inkscape:pageopacity="0.0"
     inkscape:pagecheckerboard="0"
     showgrid="false"
     inkscape:zoom="1.5664062"
     inkscape:cx="256.3192"
     inkscape:cy="256.3192"
     inkscape:window-width="1920"
     inkscape:window-height="991"
     inkscape:window-x="-9"
     inkscape:window-y="-9"
     inkscape:window-maximized="1"
     inkscape:current-layer="g1721" />
  <g
     inkscape:groupmode="layer"
     inkscape:label="Image"
     id="g1721">
    <path
       style="fill:#f9f9f9"
       d="M 232.5,510.94361 C 182.58768,505.78523 137.91335,487.93254 98,457.19492 85.451179,447.53096 61.703096,423.238 51.863638,410 25.530808,374.57183 9.5084338,336.51693 2.8132719,293.5 c -3.12039472,-20.04878 -3.12039472,-54.95122 0,-75 C 11.48417,162.78881 35.599951,115.29097 75.44546,75.44546 97.485359,53.405561 116.69434,39.587088 143.5,26.488679 c 25.25151,-12.338983 47.70679,-19.4274874 75,-23.6754071 20.07161,-3.12394906 54.96418,-3.12105785 75,0.00621 55.77013,8.7048261 103.2256,32.7970381 143.05454,72.6259731 22.00962,22.009625 35.75341,41.109135 48.97128,68.054545 12.24436,24.96087 19.40595,47.66157 23.66091,75 3.12039,20.04878 3.12039,54.95122 0,75 -8.64894,55.57009 -32.8876,103.30995 -72.63219,143.05454 -39.68861,39.68861 -88.08243,64.27753 -142.74597,72.52927 -15.41062,2.32631 -47.4039,3.29683 -61.30857,1.8598 z m 57,-33.39975 c 49.18442,-7.71922 94.10895,-31.23172 128.59311,-67.30279 C 479.33797,346.17783 496.8577,251.38221 462.56764,169.59862 437.76217,110.43627 387.58844,63.827054 327,43.662162 256.60225,20.232558 181.29023,32.566691 121,77.399561 108.83951,86.442313 86.506578,108.76263 77.374926,121 15.7141,203.63193 17.075477,314.60119 80.741156,395.38986 c 7.196952,9.13258 26.720584,28.65965 35.837724,35.84404 33.53295,26.42425 73.97236,42.9923 116.42112,47.69779 11.78076,1.30591 44.44928,0.50346 56.5,-1.38783 z M 265.17963,350.31824 c -6.61347,-3.25898 -10.11199,-10.50071 -8.7118,-18.03287 0.60847,-3.27322 4.50887,-7.60749 28.82862,-32.03537 L 313.4214,272 h -78.30957 c -87.15268,0 -82.4435,0.36492 -87.91828,-6.81288 -2.20356,-2.88903 -2.69355,-4.57824 -2.69355,-9.28595 0,-6.21704 1.66391,-9.44092 6.88472,-13.33938 2.72734,-2.03655 3.73573,-2.06507 82.38121,-2.32956 l 79.62008,-0.26776 -28.10725,-28.23224 c -30.2538,-30.38832 -30.45296,-30.65968 -28.83427,-39.28801 0.88632,-4.72453 7.2752,-11.11341 11.99973,-11.99973 8.95213,-1.67943 7.53013,-2.83223 54.73683,44.37446 38.30663,38.30663 43.76474,44.14244 44.36129,47.43105 1.6629,9.16712 2.82627,7.71761 -43.32831,53.98494 -23.44694,23.50422 -44.06754,43.41672 -45.82355,44.25 -4.11815,1.9542 -9.03277,1.89218 -13.21085,-0.1667 z"
       id="path1782" />
  </g>
</svg>
