<?xml version="1.0" encoding="UTF-8" standalone="no"?>
<!-- Created with Inkscape (http://www.inkscape.org/) -->

<svg
   version="1.1"
   id="svg1525"
   width="546.1333"
   height="546.1333"
   viewBox="0 0 546.1333 546.1333"
   sodipodi:docname="saber-light.svg"
   inkscape:version="1.1.1 (3bf5ae0d25, 2021-09-20)"
   xmlns:inkscape="http://www.inkscape.org/namespaces/inkscape"
   xmlns:sodipodi="http://sodipodi.sourceforge.net/DTD/sodipodi-0.dtd"
   xmlns="http://www.w3.org/2000/svg"
   xmlns:svg="http://www.w3.org/2000/svg">
  <defs
     id="defs1529" />
  <sodipodi:namedview
     id="namedview1527"
     pagecolor="#ffffff"
     bordercolor="#666666"
     borderopacity="1.0"
     inkscape:pageshadow="2"
     inkscape:pageopacity="0.0"
     inkscape:pagecheckerboard="0"
     showgrid="false"
     inkscape:zoom="1.4685059"
     inkscape:cx="272.72617"
     inkscape:cy="272.72617"
     inkscape:window-width="1920"
     inkscape:window-height="991"
     inkscape:window-x="-9"
     inkscape:window-y="-9"
     inkscape:window-maximized="1"
     inkscape:current-layer="g1531" />
  <g
     inkscape:groupmode="layer"
     inkscape:label="Image"
     id="g1531">
    <path
       style="fill:#f9f9f9;stroke-width:1.06667"
       d="m 164.47876,544.587 c -10.51168,-1.98233 -21.54899,-7.50494 -30.89917,-15.46069 -7.07586,-6.0206 -8.64649,-8.5916 -5.24998,-8.59385 2.54105,-0.002 15.27343,-6.66177 20.62806,-10.79019 l 5.491,-4.23355 4.97505,3.15508 c 20.72582,13.14392 48.49637,-0.65308 50.45615,-25.06767 0.60484,-7.53507 -1.31786,-14.46463 -5.81329,-20.95153 l -2.84084,-4.09934 11.12046,-11.19654 11.12045,-11.19654 3.98506,4.5824 c 2.19179,2.52033 5.68111,7.94608 7.75405,12.05723 15.36251,30.46771 3.77942,67.51013 -26.47536,84.6675 -12.38468,7.0233 -29.87039,9.83975 -44.25164,7.12769 z m 195.4009,0.48089 c -37.18111,-5.44909 -61.93608,-40.71714 -54.28187,-77.33459 1.85624,-8.88011 7.55667,-20.6431 13.0838,-26.99872 l 3.98506,-4.5824 11.12045,11.19654 11.12046,11.19654 -2.84084,4.09934 c -4.49543,6.4869 -6.41813,13.41646 -5.81329,20.95153 1.95978,24.41459 29.73033,38.21159 50.45615,25.06767 l 4.97505,-3.15508 5.491,4.23355 c 5.35463,4.12842 18.08701,10.7885 20.62806,10.79019 3.39651,0.002 1.82588,2.57325 -5.24998,8.59385 -15.53086,13.21466 -33.71971,18.71944 -52.67405,15.94158 z M 52.559549,534.76894 c -6.467395,-2.29006 -14.457977,-9.89709 -17.441458,-16.60425 -7.195179,-16.17546 0.871735,-36.44938 16.887352,-42.44158 10.091947,-3.77589 24.896506,-1.91489 31.448453,3.95319 1.617114,1.44833 1.456176,0.89912 -0.651315,-2.22265 -3.910078,-5.79191 -5.251748,-11.67028 -4.68823,-20.54092 0.361592,-5.69201 1.183606,-8.79638 3.248109,-12.26667 1.520201,-2.55535 13.836797,-15.68342 27.37022,-29.1735 l 24.6062,-24.52741 22.41012,22.41012 22.41013,22.41012 -25.87957,25.72026 c -23.74939,23.6032 -26.40636,25.9153 -32.27957,28.08991 -10.26008,3.79888 -22.949754,1.67032 -30.800869,-5.16653 -1.321203,-1.15053 -1.041446,-0.32128 0.823572,2.44119 9.037692,13.38669 6.991603,30.97831 -4.840408,41.61631 -2.857062,2.56874 -7.437382,5.43462 -10.178489,6.36861 -6.141035,2.09246 -16.433678,2.06211 -22.444247,-0.0662 z m 418.133311,0 c -2.47892,-0.87776 -6.85373,-3.70574 -9.72182,-6.2844 -11.85289,-10.65676 -13.90523,-28.2371 -4.86043,-41.63432 1.86501,-2.76247 2.14478,-3.59172 0.82357,-2.44119 -7.85111,6.83685 -20.54079,8.96541 -30.80087,5.16653 -5.87321,-2.17461 -8.53018,-4.48671 -32.27957,-28.08991 l -25.87957,-25.72026 22.41013,-22.41012 22.41012,-22.41012 24.6062,24.52741 c 13.53342,13.49008 25.85002,26.61815 27.37022,29.1735 2.0645,3.47029 2.88652,6.57466 3.24811,12.26667 0.56352,8.87064 -0.77816,14.74901 -4.68823,20.54092 -2.10749,3.12177 -2.26843,3.67098 -0.65131,2.22265 6.55194,-5.86808 21.3565,-7.72908 31.44844,-3.95319 16.01563,5.9922 24.08254,26.26612 16.88736,42.44158 -3.0794,6.92281 -11.03122,14.33749 -17.87811,16.67045 -6.14103,2.09246 -16.43367,2.06211 -22.44424,-0.0662 z M 177.87073,390.70037 155.74146,368.52285 338.95604,185.31058 C 491.1978,33.070759 522.84089,1.9132578 526.13542,1.0035932 c 7.58946,-2.0955516 15.97263,2.3482378 18.86335,9.9991798 3.4055,9.013389 -1.23087,50.971056 -9.15654,82.863888 C 516.661,171.0517 474.46981,238.94532 418.13331,283.28257 c -12.74672,10.03177 -21.60765,15.85646 -40,26.29384 -8.8,4.99386 -51.76,30.09483 -95.46666,55.77992 -43.70666,25.68509 -80.18666,46.88498 -81.06666,47.11087 -0.97198,0.2495 -10.28596,-8.2942 -23.72926,-21.76683 z m 146.52002,10.46172 -19.60923,-11.60507 13.74257,-8.07077 c 7.55841,-4.43892 22.62256,-13.32843 33.47589,-19.75445 l 19.73333,-11.68367 9.33981,9.2268 9.33982,9.2268 -22.1303,22.14913 c -12.17165,12.18201 -22.61457,22.14173 -23.20647,22.1327 -0.5919,-0.009 -9.90034,-5.23869 -20.68542,-11.62147 z M 157.86666,303.15512 c -14.4156,-8.72903 -22.62318,-14.38242 -33.6,-23.14375 C 70.41273,237.02701 29.100648,169.55619 10.291071,93.866661 2.3653968,61.973829 -2.2709687,20.016162 1.1345262,11.002773 4.0259744,3.3499199 12.365969,-1.0699047 19.999999,1.0049155 23.33672,1.9117885 42.748097,20.843891 137.06308,115.17767 l 113.06309,113.0856 -40.5245,40.53503 c -22.28847,22.29426 -40.76685,40.52552 -41.06309,40.51392 -0.29622,-0.0116 -5.09859,-2.7823 -10.67192,-6.1571 z"
       id="path1592" />
  </g>
</svg>
