<?xml version="1.0" encoding="UTF-8" standalone="no"?>
<!-- Created with Inkscape (http://www.inkscape.org/) -->

<svg
   width="390.21219mm"
   height="844.33917mm"
   viewBox="0 0 390.21219 844.33918"
   version="1.1"
   id="svg12236"
   inkscape:version="1.1.1 (3bf5ae0d25, 2021-09-20)"
   xmlns:inkscape="http://www.inkscape.org/namespaces/inkscape"
   xmlns:sodipodi="http://sodipodi.sourceforge.net/DTD/sodipodi-0.dtd"
   xmlns="http://www.w3.org/2000/svg"
   xmlns:svg="http://www.w3.org/2000/svg">
  <sodipodi:namedview
     id="namedview12238"
     pagecolor="#ffffff"
     bordercolor="#666666"
     borderopacity="1.0"
     inkscape:pageshadow="2"
     inkscape:pageopacity="0.0"
     inkscape:pagecheckerboard="0"
     inkscape:document-units="mm"
     showgrid="false"
     inkscape:zoom="0.17861602"
     inkscape:cx="137.16575"
     inkscape:cy="1581.605"
     inkscape:window-width="1920"
     inkscape:window-height="991"
     inkscape:window-x="-9"
     inkscape:window-y="-9"
     inkscape:window-maximized="1"
     inkscape:current-layer="layer1"
     showguides="false">
    <sodipodi:guide
       position="0.21239882,844.33918"
       orientation="0,898.57564"
       id="guide17131" />
    <sodipodi:guide
       position="237.96053,844.33918"
       orientation="1254.0868,0"
       id="guide17133" />
    <sodipodi:guide
       position="237.96053,512.52872"
       orientation="0,-898.57564"
       id="guide17135" />
    <sodipodi:guide
       position="0.21239882,512.52872"
       orientation="-1254.0868,0"
       id="guide17137" />
  </sodipodi:namedview>
  <defs
     id="defs12233" />
  <g
     inkscape:label="Lager 1"
     inkscape:groupmode="layer"
     id="layer1"
     transform="translate(15.766019,26.66334)">
    <rect
       style="fill:#808080;fill-opacity:1;stroke:none;stroke-width:0"
       id="rect17322"
       width="278.48376"
       height="512.52869"
       x="-15.766019"
       y="305.14713"
       ry="0.18261489" />
    <rect
       style="fill:#666666;fill-opacity:1;stroke:none;stroke-width:0"
       id="rect17474"
       width="291.81546"
       height="496.23441"
       x="-15.766019"
       y="321.44138"
       ry="0.18261489" />
    <rect
       style="fill:#000000;fill-opacity:0;stroke:none;stroke-width:0"
       id="rect12319"
       width="234.78554"
       height="313.29425"
       x="-12.591022"
       y="-8.1471319"
       ry="0.18261489" />
    <path
       id="rect14588"
       style="fill:#4d4d4d;fill-opacity:1;stroke:none;stroke-width:0"
       d="m 339.65039,0 c -3.15744,0 -5.69922,2.5417813 -5.69922,5.6992188 V 2092.291 c 31.39486,-26.5772 67.50362,-47.506 105.89258,-60.4512 31.75757,-10.7089 78.48454,-17.224 117.21289,-17.0078 h 0.002 c 8.93729,0.05 17.44723,0.4575 25.25,1.2559 38.49176,3.938 83.20602,19.851 123.47657,43.9433 41.90758,25.0717 55.76695,30.3103 94.90234,35.875 36.31601,5.1636 47.44336,13.8224 47.44336,36.918 0,20.5707 -10.44675,30.5311 -40.23438,38.3516 -44.45732,11.672 -86.96026,11.2795 -143.82031,-1.3262 -48.88996,-10.8387 -73.40847,-14.8591 -101,-16.5527 -42.68418,-2.6201 -51.93945,2.6836 -51.93945,29.7617 0,19.4206 -2.83728,26.5022 -18.41797,45.9316 -15.55277,19.3948 -25.36854,25.4521 -41.21289,25.4786 -15.40288,0.015 -23.64434,7.0771 -30.53516,26.1679 -2.66238,7.3761 -4.84179,13.7791 -4.84179,14.2305 0,0.4513 2.6362,1.4806 5.85547,2.289 7.66454,1.9237 22.48446,17.3542 31.02929,32.3086 23.18642,40.5799 25.11138,87.0364 4.50781,108.6954 l -8.9082,9.3613 10.58789,12.3906 c 5.82189,6.8146 11.59073,12.3906 12.81836,12.3906 1.22747,0 5.05467,-2.0504 8.50781,-4.5547 19.78174,-14.3449 48.82905,-8.7621 85.19141,16.375 48.48093,33.5151 79.03461,85.4022 70.94141,120.4629 l -2.63282,11.4239 14.82813,17.9414 c 8.15708,9.8664 18.30742,22.4939 22.55664,28.0625 5.06284,6.6348 10.85965,11.1815 16.81641,13.1894 25.18614,8.4896 64.44209,44.8127 89.4375,82.7539 21.11882,32.0576 30.08203,59.5033 30.08203,92.1309 0,27.9036 -4.40757,39.5271 -21.24805,56.0605 l -13.51367,13.2676 v 26.709 26.7031 h 6.23047 c 2.19685,0 4.92231,1.255 8.70898,4.0117 -0.36219,0.9839 -0.55187,2.2315 -0.63086,3.9649 -0.75125,0.2198 -0.47212,1.323 -0.0937,2.5234 -0.0238,0.8056 -0.0439,1.5039 -0.082,2.4395 -0.41609,3.0607 -0.80312,6.1251 -1.24805,9.1816 -0.54886,3.7709 -1.28273,7.5162 -1.72656,11.2988 l -5.69531,-5.4082 -15.8418,15.9668 c -20.29847,20.4553 -36.59835,28.2944 -58.72656,28.2188 -25.24577,-0.079 -43.61483,-9.2624 -67.44727,-33.7168 l -10.25781,-10.5254 -18.9082,18.1523 c -21.37459,20.5205 -33.66038,26.1915 -56.74219,26.1915 -23.14519,0 -35.35036,-5.6586 -56.94531,-26.3907 l -19.11524,-18.3476 -15.86718,15.8672 c -23.67234,23.6722 -46.13,32.3859 -72.66407,28.1914 -17.40177,-2.7509 -30.19171,-10.2151 -47.63476,-27.793 l -4.34766,-4.3809 v 171.9493 c 0,3.1574 2.54178,5.6992 5.69922,5.6992 H 1802.2676 c 3.1574,0 5.6992,-2.5418 5.6992,-5.6992 V 5.6992188 C 1807.9668,2.5417813 1805.425,0 1802.2676,0 Z M 550.5332,2040.2949 c -51.8749,-0.017 -73.29109,3.2347 -108.91406,16.5313 -28.93088,10.7986 -43.35233,18.1975 -69.28125,35.541 -13.69454,9.1601 -26.45202,19.8205 -38.38672,31.4707 v 142.0937 c 9.56715,-23.0774 22.11104,-45.0306 37.52539,-64.9765 27.42873,-35.4924 78.7921,-62.9406 136,-72.6778 35.0367,-5.9635 79.14089,-1.3925 148.49024,15.3848 35.18187,8.5114 43.23302,9.638 75.31054,10.5664 29.92021,0.8659 39.72003,0.2582 58.69141,-3.6582 27.01402,-5.5769 33.99805,-9.4174 33.99805,-18.6777 0,-8.2303 -6.03327,-10.8814 -29.41992,-12.9278 -31.25457,-2.7347 -56.45046,-12.0987 -96.9961,-36.0566 -27.44386,-16.2161 -52.20845,-27.2766 -80.97656,-36.1602 -19.77244,-6.1053 -23.20101,-6.4266 -66.04102,-6.4531 z m -59.77539,114.6543 -12.40234,3.6836 c -6.82169,2.0252 -18.65778,6.8329 -26.30469,10.6875 -79.20809,39.9264 -125.14212,127.9262 -116.5957,223.3692 5.68722,63.5124 36.5177,120.5101 104.03515,192.3164 12.69809,13.5046 29.93647,33.0337 38.30469,43.4003 38.21249,47.3382 76.91583,114.9332 97.03906,169.4708 17.45079,47.2954 32.66485,121.9882 30.9043,151.7343 -0.67669,11.4369 -1.37726,12.9222 -7.05273,14.9082 -8.53774,2.9877 -15.71094,-3.3813 -15.71094,-13.9453 0,-16.6505 -7.38708,-62.4471 -14.78711,-91.7012 -23.25987,-91.9532 -69.98947,-175.2132 -141.54102,-252.1699 -46.83458,-50.3736 -75.53199,-89.2838 -92.69531,-127.7636 v 157.9843 c 45.20797,77.8882 66.24059,148.6064 72.92578,245.5313 2.65155,38.4444 1.43893,86.5058 -2.58593,102.4004 -2.49326,9.8462 -9.08797,13.204 -16.39649,8.3515 -4.65638,-3.0918 -4.82042,-5.2869 -5.38086,-71.455 -0.31809,-37.5447 -1.31846,-70.9872 -2.22656,-74.3184 -1.50085,-5.5074 -2.97959,-6.182 -16.27734,-7.4238 -7.63086,-0.7125 -20.72684,-3.9703 -30.0586,-7.3848 v 148.0449 c 3.18809,2.8237 6.86375,6.2211 11.53125,10.7285 23.823,23.0062 36.04695,29.9674 52.76172,30.043 16.84028,0.077 25.87744,-5.0408 49.0625,-27.7773 15.12242,-14.83 22.88975,-20.836 26.94727,-20.836 4.07137,0 11.29752,5.6267 25.2832,19.6856 22.15464,22.2703 33.96779,28.9785 51.03906,28.9785 17.51648,0 26.32622,-4.9358 49.66992,-27.8281 14.71012,-14.4259 22.93999,-20.836 26.75196,-20.836 3.81167,0 12.03979,6.4101 26.75,20.836 23.19405,22.7455 32.17761,27.8281 49.18945,27.8281 12.61781,0 31.1643,-8.0565 39.86523,-17.3184 5.09986,-5.4286 5.37905,-7.4641 5.60938,-41.123 l 0.23828,-35.4082 -15.48828,-1.5293 c -32.68823,-3.2324 -75.94778,-35.0388 -102.50977,-75.3653 -7.30621,-11.0926 -6.53712,-18.289 2.31446,-21.6542 8.0027,-3.0427 10.91673,-1.2098 20.73437,13.0449 18.58488,26.9843 56.2068,56.0054 77.78321,60.0058 18.36243,3.4048 40.26352,-9.0725 48.76171,-27.7793 8.16325,-17.969 4.03249,-52.5958 -9.70703,-81.3847 -9.62556,-20.1683 -30.57784,-47.605 -51.3789,-67.2735 -28.77,-27.2028 -46.11993,-34.7583 -63.31836,-27.5722 -11.408,4.7666 -16.66945,9.5595 -22.04297,20.0879 -2.35902,4.6221 -5.90382,9.0273 -7.88086,9.7851 -5.37524,2.0626 -14.3451,-2.1387 -15.71094,-7.3613 -2.90184,-11.0973 13.42513,-33.2991 31.13086,-42.332 l 9.16992,-4.6778 -8.71289,-10.8711 c -4.79239,-5.9803 -14.36878,-17.4241 -21.2793,-25.4258 -13.32891,-15.433 -13.16946,-14.7345 -8.02734,-35.2695 4.98515,-19.9106 -8.30534,-50.7801 -32.10742,-74.582 -24.19939,-24.1995 -56.7392,-43.5996 -73.13086,-43.5996 -8.54002,0 -18.80628,6.2469 -22.72656,13.8281 -7.351,14.215 -1.83236,50.4485 11.02539,72.3887 12.81993,21.8757 46.75674,47.548 73.16015,55.3457 14.42617,4.2607 18.31885,17.0711 7.0254,23.1152 -8.62633,4.6167 -35.09979,-6.0147 -61.4004,-24.6582 -37.34939,-26.4756 -56.40992,-63.1191 -56.4707,-108.5566 l -0.0215,-20.6758 -11.13086,-12.9238 c -6.12059,-7.1087 -13.86882,-16.5765 -17.22071,-21.0372 -4.04327,-5.3809 -9.98125,-9.4823 -17.64648,-12.1914 -22.67754,-8.0145 -44.9987,-41.7644 -49.83789,-75.3554 -2.96821,-20.6029 0.13577,-28.9753 11.2168,-30.25 9.31449,-1.0714 12.7832,4.5818 12.7832,20.8281 0,19.5236 7.42955,37.2363 21.86914,52.1445 13.34293,13.7757 19.91776,15.4776 29.78906,7.7129 17.89734,-14.078 11.98002,-60.0154 -11.78515,-91.4961 -7.63321,-10.1113 -9.91647,-11.6637 -17.9375,-12.2031 -14.05228,-0.9443 -18.97799,-2.4829 -20.48047,-6.3984 -1.9431,-5.0637 13.4613,-49.9176 24.25,-70.6094 11.14441,-21.3741 28.25416,-44.4709 34.71094,-46.8594 6.03211,-2.2313 12.94455,1.3181 14.96679,7.6895 1.09334,3.445 -0.62508,7.8839 -5.88281,15.205 -4.08402,5.687 -6.84159,10.9241 -6.12891,11.6368 3.78555,3.7855 13.96369,-3.1648 25.06055,-17.1153 12.07097,-15.1751 12.3657,-15.9182 12.44141,-30.709 0.0391,-8.3371 0.92513,-18.0035 1.97265,-21.4785 z m 153.06836,115.8594 c 5.79978,-0.053 11.67057,1.0881 17.39649,3.4805 36.66853,15.321 37.69756,65.4173 1.69531,82.5332 -12.68386,6.0297 -32.5624,4.8318 -43.43945,-2.6211 -22.24705,-15.2439 -27.3239,-47.1879 -10.53907,-66.3047 9.72074,-11.0714 22.12722,-16.97 34.88672,-17.0879 z m -0.26562,23.3379 c -2.80471,0.1941 -5.81582,1.2421 -9.39649,3.0937 -14.03938,7.2602 -15.03173,28.0725 -1.72656,36.1856 10.08874,6.1516 16.4008,5.6029 25.11523,-2.1836 5.8848,-5.2579 7.45118,-8.485 7.45118,-15.3535 0,-6.8685 -1.56638,-10.0955 -7.45118,-15.3535 -5.21531,-4.6599 -9.31774,-6.7122 -13.99218,-6.3887 z m 554.40425,4.2344 c 0.071,0.023 0.1433,0.026 0.211,0.033 -0.062,0.084 -0.1332,0.1419 -0.1914,0.2265 -0.015,-0.1134 -0.018,-0.1413 -0.025,-0.2539 z m -784.78316,56.2851 c 5.555,-0.5072 11.49366,4.1296 14.125,12.9121 3.46847,11.5594 3.44883,17.3382 -0.0547,20.8418 -3.01431,3.0143 -8.67322,3.5765 -14.29297,1.4199 -5.39162,-2.069 -11.6198,-22.783 -8.5664,-28.4882 2.26164,-4.226 5.45607,-6.381 8.78906,-6.6856 z m 119.75195,162.2988 c 15.78954,0.7979 38.709,17.4812 47.08985,35.7872 5.18066,11.3162 5.54196,13.7681 3.18164,21.6464 -1.46401,4.8867 -5.38346,11.0272 -8.71094,13.6446 -8.20791,6.4563 -20.45316,6.051 -34.9043,-1.1504 -13.79147,-6.8726 -23.07089,-17.9757 -27.69726,-33.1426 -5.43117,-17.8043 0.26027,-31.7167 14.77344,-36.1133 1.90135,-0.5761 4.01194,-0.7864 6.26757,-0.6719 z m 3.6543,24.8555 c -3.93293,0 -2.48287,8.3812 2.56055,14.793 2.66145,3.3835 7.82304,7.6997 11.4707,9.5859 v 0 c 8.37955,4.3338 9.18164,4.2971 9.18164,-0.4414 0,-4.059 -19.27593,-23.9336 -23.21289,-23.9336 z m 427.35156,117.2891 c 0.76936,0.2004 1.44314,0.3898 2.26953,0.5996 0.0299,0.9472 0.0851,1.8926 0.11914,2.8398 -0.78447,-1.1542 -1.5955,-2.2852 -2.38867,-3.4394 z m -133.5039,1.4043 c 0.43154,0.288 0.85833,0.5853 1.28515,0.8808 -1.09202,0.231 -2.47549,0.3813 -2.50195,0.336 -0.14808,-0.2499 -0.37593,-0.631 -0.61328,-1.0332 0.60416,-0.032 1.21957,-0.1254 1.83008,-0.1836 z m -496.48438,25.7734 v 120.8809 c 8.85887,3.9669 20.49211,7.512 30.92383,9.2363 l 10.14844,1.6797 -1.62891,-10.8535 c -2.34199,-15.6172 -12.0051,-51.8398 -19.03711,-71.3594 -3.81551,-10.5915 -14.28658,-35.7888 -20.40625,-49.584 z m 353.64258,57.4824 c 5.61247,-0.4201 11.08575,1.598 19.40039,6.3672 24.25957,13.9153 42.65954,41.3402 44.4375,66.2324 1.15908,16.2283 -3.50391,25.9946 -16.07617,33.6602 -14.56766,8.8819 -33.15902,3.4678 -51.67188,-15.0449 -28.21576,-28.216 -32.01553,-75.9969 -6.98828,-87.8731 4.11479,-1.9526 7.53093,-3.0867 10.89844,-3.3418 z m -72.17773,14.1836 c 1.55497,0 3.10977,0.8748 5.79296,2.6328 4.73602,3.1028 5.79102,5.6687 5.79102,14.0547 -3e-5,7.3259 -1.15898,10.9366 -4.05469,12.6231 -6.47462,3.7713 -11.63068,2.8918 -15.50976,-2.6465 -5.69182,-8.1261 -4.65498,-19.5504 2.18359,-24.0313 2.68329,-1.758 4.24233,-2.6328 5.79688,-2.6328 z m 75.57226,11.1192 c -2.48401,0.086 -4.47657,1.5244 -5.97266,4.3203 -6.33928,11.8448 1.26269,31.9029 17.51758,46.2109 12.17468,10.7165 18.24823,12.7673 23.18164,7.834 7.35267,-7.3528 -0.90021,-28.8626 -18.23437,-47.5215 -6.84924,-7.3726 -12.35223,-10.9874 -16.49219,-10.8437 z m 146.29297,50.0293 h 0.002 c 0.19129,1.062 0.50952,2.179 0.50196,3.1543 -0.0129,1.1598 -0.038,2.326 -0.0645,3.4882 -0.11512,-0.3101 -0.34509,-0.5341 -0.43164,-0.8652 -0.55661,-2.1297 -0.57368,-4.0437 -0.008,-5.7773 z m 18.41016,223.0546 c 1.57383,1.0796 3.1478,2.075 4.71679,3.0567 -1.96286,0.102 -3.93581,0.1498 -5.96875,0.074 0.24567,-0.6568 0.28263,-0.7804 0.5918,-1.6191 0.21838,-0.5043 0.44132,-1.0073 0.66016,-1.5118 z"
       transform="matrix(0.26458333,0,0,0.26458333,-103.91172,-26.66334)" />
    <path
       style="fill:#666666;stroke-width:0.556637"
       d="m 101.79528,786.98921 c -1.45528,-1.05934 -1.63532,-3.16934 -0.37772,-4.42692 0.6294,-0.62944 1.99531,-0.87882 4.87056,-0.88933 5.39592,-0.0189 7.23902,-0.97615 13.11228,-6.80421 6.47351,-6.42373 6.63344,-6.42468 12.88309,-0.0784 5.24704,5.32817 7.89195,6.86697 11.83416,6.88505 4.09549,0.0189 6.36872,-1.27342 11.89103,-6.75956 3.90192,-3.87636 5.44237,-5.05673 6.59934,-5.05673 1.15693,0 2.69739,1.18037 6.5993,5.05673 5.5223,5.48614 7.79551,6.77836 11.89096,6.75956 3.94221,-0.0189 6.58712,-1.55688 11.83416,-6.88505 6.25421,-6.35093 6.36728,-6.34926 13.03648,0.19102 5.49207,5.38587 7.80479,6.70628 11.74615,6.70628 3.92778,0 6.14281,-1.26935 11.66496,-6.68473 3.86951,-3.79469 5.46505,-5.00465 6.59947,-5.00465 h 1.49615 v -6.41518 -6.41522 l -3.24597,-3.18677 c -4.04532,-3.97155 -5.10357,-6.76394 -5.10357,-13.46679 0,-7.83761 2.15277,-14.4312 7.22592,-22.13189 6.00426,-9.11404 15.43377,-17.83879 21.48382,-19.8781 1.43092,-0.48232 2.82337,-1.5744 4.03954,-3.16815 1.02072,-1.33765 3.45906,-4.37124 5.41849,-6.7413 l 3.56258,-4.30918 -0.63348,-2.74449 c -1.9441,-8.42231 5.39623,-20.88585 17.04206,-28.93663 8.7348,-6.03833 15.71167,-7.37945 20.46351,-3.93357 0.82952,0.60154 1.74945,1.0937 2.04432,1.0937 0.2949,0 1.68039,-1.33933 3.07889,-2.97632 l 2.54277,-2.97632 -2.13955,-2.24914 c -4.9493,-5.20278 -4.48622,-16.36172 1.08349,-26.10958 2.05258,-3.59228 5.61212,-7.29876 7.45326,-7.76084 0.77331,-0.19397 1.40602,-0.44157 1.40602,-0.54998 0,-0.10844 -0.52325,-1.64679 -1.16279,-3.41864 -1.65528,-4.58588 -3.6347,-6.28226 -7.33469,-6.28587 -3.80603,-0.003 -6.16369,-1.46129 -9.89967,-6.12018 -3.7427,-4.66726 -4.42496,-6.36845 -4.42496,-11.03357 0,-6.50454 -2.22284,-7.77824 -12.47618,-7.14885 -6.62792,0.40685 -12.51777,1.37198 -24.26186,3.97558 -13.65859,3.02807 -23.86847,3.12214 -34.54781,0.31837 -7.15539,-1.87857 -9.66507,-4.27058 -9.66507,-9.21196 0,-5.54789 2.67339,-7.62817 11.39701,-8.86857 9.40089,-1.33671 12.72962,-2.59506 22.79642,-8.6176 9.67357,-5.78733 20.4152,-9.61011 29.66144,-10.55608 9.99646,-1.0227 24.83355,0.61778 34.22264,3.78386 19.18473,6.46927 36.05132,21.17428 45.11667,39.33459 2.95821,5.92609 5.93837,14.58395 7.42798,21.57958 1.62105,7.61288 1.74148,22.49034 0.24847,30.69729 -3.29822,18.1299 -9.80578,35.22164 -19.85269,52.14185 -1.83703,3.09379 -3.27055,5.68151 -3.18563,5.75047 1.89396,1.53816 10.54417,3.5279 17.29935,3.97924 4.64455,0.31032 5.57548,0.5357 6.26217,1.5161 1.03437,1.47677 1.01808,2.28282 -0.0682,3.369 -1.86441,1.86443 -14.09806,0.68368 -22.45883,-2.16764 -2.27129,-0.77459 -4.19057,-1.34625 -4.26515,-1.27038 -0.38062,0.38743 -4.72709,10.68289 -5.98992,14.18831 -1.68918,4.68887 -4.0106,13.39032 -4.57316,17.14177 l -0.39092,2.60673 2.43808,-0.403 c 3.27627,-0.54152 7.06934,-1.8284 9.18342,-3.11563 2.26033,-1.37624 3.15341,-1.3334 5.95821,0.28595 3.46311,1.99942 9.37506,3.62475 14.66318,4.03123 3.87287,0.29769 4.83613,0.5627 5.50229,1.51377 1.03527,1.47807 1.01922,2.28389 -0.0671,3.37028 -1.87191,1.87193 -12.60892,0.57016 -19.72085,-2.39098 l -3.61814,-1.50643 -4.09026,1.57717 c -2.24964,0.86743 -5.67115,1.72478 -7.60334,1.9052 -3.19431,0.29831 -3.54909,0.46012 -3.90962,1.78304 -0.21811,0.80023 -0.45905,8.83395 -0.53545,17.85272 -0.13473,15.89451 -0.17443,16.42125 -1.29281,17.16393 -1.7556,1.16565 -3.33872,0.35911 -3.93763,-2.0061 -0.96683,-3.81814 -1.25859,-15.36277 -0.62165,-24.59764 1.62383,-23.54286 6.74853,-40.64377 17.86143,-59.6027 13.55397,-23.12356 20.35786,-42.24702 22.19005,-62.36898 2.36499,-25.97349 -10.60392,-53.67175 -31.7543,-67.81903 -6.22851,-4.16615 -9.69353,-5.94365 -16.64314,-8.53767 -8.55715,-3.19405 -13.70083,-3.97473 -26.16192,-3.97077 -10.29078,0.003 -11.11457,0.0838 -15.86414,1.55043 -6.91053,2.13393 -12.8593,4.79014 -19.4517,8.68549 -9.73965,5.75502 -15.79215,8.0051 -23.29999,8.66203 -5.61778,0.49154 -7.06733,1.12851 -7.06733,3.10555 0,2.22447 1.67781,3.14597 8.16697,4.4856 4.55719,0.9408 6.91124,1.08767 14.09849,0.8797 7.7055,-0.22297 9.63955,-0.49441 18.09071,-2.53894 16.65871,-4.03016 27.25249,-5.12763 35.66879,-3.69513 13.74216,2.33903 26.0805,8.93256 32.66929,17.45833 11.36802,14.71006 16.3642,33.91705 13.46799,51.7756 -2.45053,15.11026 -9.5084,27.1793 -26.71965,45.69072 -17.18769,18.48611 -28.41396,38.48609 -34.00131,60.57454 -1.7776,7.02725 -3.55103,18.02861 -3.55103,22.02825 0,2.53764 -1.72329,4.06689 -3.77416,3.34917 -1.36332,-0.47708 -1.53185,-0.83323 -1.69444,-3.5805 -0.42286,-7.14549 3.23131,-25.08787 7.42326,-36.44893 4.83387,-13.10074 14.13142,-29.33775 23.31062,-40.70905 2.01015,-2.4902 6.1505,-7.18186 9.20076,-10.42588 16.21867,-17.2489 23.62567,-30.94077 24.99182,-46.19735 2.05299,-22.92677 -8.98098,-44.06498 -28.0079,-53.65587 -1.83688,-0.92593 -4.68053,-2.08151 -6.31921,-2.56798 l -2.97941,-0.8845 0.45746,1.5177 c 0.25164,0.83473 0.46518,3.15628 0.47457,5.159 0.0166,3.55297 0.0892,3.73196 2.98874,7.37723 2.66563,3.35113 5.11,5.0207 6.01933,4.11137 0.17131,-0.1713 -0.49138,-1.42903 -1.47244,-2.79513 -1.26297,-1.75866 -1.67546,-2.82507 -1.41281,-3.6526 0.48576,-1.53049 2.14631,-2.38398 3.5953,-1.84798 1.55102,0.57377 5.66067,6.12204 8.33781,11.2565 2.59161,4.97045 6.29224,15.74543 5.8255,16.96178 -0.36094,0.9406 -1.54441,1.31035 -4.91997,1.53718 -1.92677,0.1294 -2.47528,0.50267 -4.3089,2.93157 -5.70871,7.56209 -7.12995,18.59671 -2.83076,21.97844 2.37121,1.86521 3.95106,1.45614 7.15618,-1.85297 3.46862,-3.58115 5.25278,-7.8355 5.25278,-12.52537 0,-3.9026 0.83394,-5.26121 3.07138,-5.00385 2.66184,0.3062 3.40751,2.31699 2.69452,7.2661 -1.16246,8.06905 -6.52464,16.17672 -11.9721,18.10192 -1.84128,0.65075 -3.26796,1.63649 -4.23923,2.92908 -0.80515,1.07153 -2.66687,3.34534 -4.13713,5.0529 l -2.67317,3.10471 -0.006,4.96654 c -0.0147,10.91471 -4.59332,19.71661 -13.56521,26.07646 -6.31774,4.47844 -12.67668,7.03226 -14.74884,5.92327 -2.71288,-1.45188 -1.77748,-4.52881 1.6879,-5.55228 6.34247,-1.87314 14.49393,-8.03995 17.57348,-13.2948 3.08862,-5.27033 4.41433,-13.97418 2.64854,-17.38883 -0.94171,-1.82112 -3.40789,-3.32162 -5.45929,-3.32162 -3.93753,0 -11.75391,4.65994 -17.56696,10.47297 -5.71757,5.71759 -8.90983,13.13313 -7.71231,17.91553 1.23519,4.93283 1.27322,4.76577 -1.92855,8.47298 -1.66002,1.92209 -3.96015,4.67007 -5.11136,6.10662 l -2.09313,2.61196 2.20297,1.12385 c 4.25318,2.16982 8.17488,7.5024 7.4778,10.16807 -0.32807,1.25457 -2.48226,2.26444 -3.77346,1.76896 -0.47492,-0.18215 -1.32714,-1.23981 -1.89383,-2.35008 -1.29079,-2.52908 -2.55442,-3.68079 -5.29477,-4.82577 -4.13132,-1.72619 -8.29845,0.0884 -15.20942,6.62301 -4.99673,4.72464 -10.03094,11.31578 -12.34313,16.16052 -3.30047,6.91554 -4.29242,15.23301 -2.33149,19.54949 2.0414,4.49358 7.30309,7.49106 11.71401,6.67323 5.18297,-0.961 14.21969,-7.93292 18.68403,-14.41494 2.35834,-3.42417 3.05839,-3.86466 4.98076,-3.13376 2.12626,0.8084 2.31107,2.5378 0.55601,5.20239 -6.38057,9.68697 -16.77207,17.32651 -24.62425,18.103 l -3.72079,0.36795 0.058,8.50574 c 0.0553,8.08535 0.12185,8.57358 1.34692,9.87761 2.09009,2.22482 6.54556,4.16044 9.57654,4.16044 4.08646,0 6.24456,-1.2209 11.81612,-6.68473 3.53361,-3.46528 5.51007,-5.00465 6.42571,-5.00465 0.91567,0 2.89213,1.53937 6.42572,5.00465 5.60748,5.49906 7.72379,6.68473 11.9315,6.68473 4.10075,0 6.93907,-1.61143 12.26094,-6.96108 3.35955,-3.37711 5.09501,-4.7283 6.073,-4.7283 0.97469,0 2.83996,1.44225 6.47259,5.00465 5.56937,5.46168 7.741,6.69108 11.78629,6.6725 4.01511,-0.0189 6.95095,-1.69012 12.67356,-7.21651 3.94366,-3.80843 5.44495,-4.93215 6.22107,-4.65644 0.56267,0.19987 3.30393,2.57778 6.09173,5.28424 2.78777,2.70646 5.97344,5.29886 7.07923,5.76088 1.10581,0.46205 3.62624,0.84006 5.60102,0.84006 1.97478,0 3.99367,0.15458 4.48644,0.34382 1.41944,0.5447 2.04867,2.18179 1.4469,3.76457 -0.70867,1.86395 -3.32209,2.32193 -8.69206,1.52324 -5.40594,-0.80404 -7.73877,-2.04406 -12.68571,-6.74316 l -4.05257,-3.84956 -3.77042,3.79952 c -4.1901,4.22247 -7.26267,6.01501 -11.44284,6.6758 -6.37384,1.00757 -11.76785,-1.08506 -17.45427,-6.7715 l -3.81193,-3.81193 -4.59129,4.4078 c -5.18742,4.98014 -8.12008,6.33911 -13.67989,6.33911 -5.54457,0 -8.49588,-1.36228 -13.63036,-6.29158 l -4.54177,-4.36028 -2.46413,2.52848 c -5.7249,5.87433 -10.13663,8.07966 -16.20103,8.09865 -5.31548,0.0166 -9.23111,-1.86482 -14.10708,-6.77847 l -3.80622,-3.8356 -4.05258,3.84956 c -4.69303,4.45789 -7.22384,5.89788 -11.56112,6.57803 -6.58613,1.03281 -11.25666,-0.75816 -17.33484,-6.64727 l -3.92531,-3.80318 -3.52702,3.5586 c -4.20878,4.24655 -7.60165,6.20983 -11.89514,6.88312 -6.65934,1.04429 -11.80138,-0.95833 -17.6735,-6.88312 l -3.52698,-3.5586 -4.01225,3.89045 c -5.28521,5.12477 -8.81561,6.77448 -14.45011,6.75239 -5.63363,-0.0221 -9.13246,-1.66515 -14.37897,-6.75239 l -4.01227,-3.89045 -3.58929,3.63223 c -4.75301,4.80993 -8.77628,6.78618 -14.72201,7.23152 -3.6184,0.27102 -4.68788,0.16266 -5.70553,-0.57814 z m 3.88116,-15.07437 c -0.68042,-0.47657 -1.23715,-1.36602 -1.23715,-1.97657 0,-0.61051 1.36739,-3.93293 3.03866,-7.38314 12.78864,-26.40132 12.02591,-51.44739 -2.67367,-87.79699 -4.49294,-11.11027 -5.944358,-16.8857 -5.911913,-23.52426 0.02459,-5.05275 1.153263,-11.27769 2.914653,-16.07628 4.86267,-13.24765 17.24875,-23.79737 31.57743,-26.89569 4.8435,-1.04734 13.61043,-1.00604 18.53754,0.0873 20.49364,4.54763 31.72465,25.98219 22.5919,43.11697 -2.15222,4.03795 -7.12073,8.7991 -11.18569,10.71884 -7.03324,3.32156 -16.34829,3.39431 -22.56829,0.17627 -0.99498,-0.51479 -1.80529,-0.74167 -1.80066,-0.50419 0.003,0.23746 1.2792,2.15445 2.83237,4.25992 l 2.824,3.82815 2.87318,-0.34954 c 1.58022,-0.19229 3.77365,-0.50112 4.87419,-0.68632 1.71697,-0.28896 2.29507,-0.0787 4.07216,1.48169 2.76633,2.42888 6.66769,7.56064 8.74863,11.50781 2.07411,3.93418 1.924,5.51959 -0.9294,9.81711 -2.37648,3.57926 -2.40063,3.23389 0.82274,11.76406 3.21207,8.50026 3.24298,8.54928 5.83266,9.24661 3.11095,0.8377 5.15788,2.41662 6.47182,4.9922 3.29475,6.45824 5.50163,21.96516 3.72628,26.18316 -0.46621,1.10772 -1.8136,2.72158 -2.99413,3.58638 -3.58692,2.62757 -3.53805,2.46297 -3.53805,11.91622 0,9.38393 -0.4706,11.15899 -2.95391,11.14166 -2.70957,-0.0189 -2.75444,-0.22278 -2.83306,-12.8723 -0.0616,-9.91894 -0.29957,-13.16306 -1.43552,-19.57343 -1.45672,-8.22038 -1.328,-9.40154 1.06306,-9.75571 2.23412,-0.33094 3.2096,1.29461 4.22615,7.04239 0.52403,2.96313 1.12198,5.98465 1.32872,6.71451 0.36353,1.28316 0.40937,1.29353 1.38891,0.31398 0.89429,-0.89429 0.96703,-1.60028 0.62078,-6.02634 -0.42792,-5.4702 -1.96906,-12.22582 -3.49632,-15.32642 -0.75852,-1.53989 -1.57253,-2.18252 -3.72941,-2.94418 -4.12142,-1.45541 -5.49002,-3.22117 -8.1103,-10.46394 -1.27373,-3.52073 -3.79531,-9.21757 -5.60355,-12.65965 -3.30815,-6.29727 -3.85066,-8.26354 -2.61972,-9.49451 1.60642,-1.60642 3.66754,-0.54323 5.75642,2.96941 0.52477,0.88242 0.67785,0.82493 1.61598,-0.60682 1.02839,-1.56955 1.02481,-1.60353 -0.47119,-4.46083 -0.82909,-1.58359 -2.68348,-4.18398 -4.12084,-5.77864 l -2.61336,-2.89941 -4.85725,0.71065 c -4.83566,0.7075 -4.86371,0.70459 -6.31033,-0.65136 -4.00865,-3.75749 -9.30288,-12.27258 -11.96537,-19.24485 l -1.67363,-4.38263 0.233,5.00974 c 0.28431,6.11317 1.22089,8.61973 6.26271,16.76113 17.58907,28.40239 24.96218,61.16301 20.53148,91.22642 -0.99955,6.78217 -1.83183,8.62787 -3.89054,8.62787 -2.51315,0 -3.09119,-1.84245 -2.18295,-6.95795 3.49294,-19.67325 1.19253,-43.03693 -6.20633,-63.03404 -2.83946,-7.67429 -9.47024,-21.09689 -13.82028,-27.97611 -5.01801,-7.93558 -6.5905,-12.83443 -6.61102,-20.59557 -0.0259,-9.85038 1.93706,-15.24765 7.60589,-20.91174 4.68419,-4.68028 8.22501,-6.07938 15.36996,-6.07321 4.63789,0.003 5.63029,0.18534 8.07128,1.47516 5.15415,2.72341 7.5146,6.41206 7.5146,11.74299 0,3.21999 -0.64887,4.30398 -2.57641,4.30398 -1.8067,0 -2.98995,-1.46938 -2.98995,-3.71295 0,-5.16859 -3.86271,-8.25859 -10.29784,-8.2379 -4.31631,0.0147 -6.57709,0.90218 -9.60201,3.77281 -2.04776,1.94328 -2.2466,3.44727 -1.04437,7.89971 2.93243,10.86034 10.21914,15.86312 20.67286,14.19315 6.95664,-1.11133 12.11938,-4.87022 15.12407,-11.0116 2.10254,-4.29743 2.48704,-11.70861 0.84858,-16.35594 -2.16181,-6.13167 -7.3591,-12.07003 -13.05477,-14.91618 -7.87819,-3.93677 -18.85746,-4.42526 -27.56199,-1.22628 -14.5111,5.33294 -23.12334,15.98402 -25.17138,31.13034 -1.08751,8.0428 0.0579,14.15764 4.73142,25.25808 5.51311,13.09474 9.66349,27.66549 11.7456,41.23531 1.17161,7.63587 0.74464,21.82548 -0.88849,29.52835 -2.79735,13.19387 -10.44622,30.46959 -13.49047,30.46959 -0.10514,0 -0.74775,-0.38994 -1.42817,-0.86653 z m 140.83949,-31.41542 c -3.02007,-1.84135 -4.14044,-4.18685 -3.86202,-8.08509 0.42709,-5.97946 4.84701,-12.56712 10.67453,-15.90978 3.19565,-1.83305 4.64231,-1.9775 7.2781,-0.7267 6.01194,2.85284 5.09917,14.33022 -1.67869,21.10806 -4.44702,4.44702 -8.91257,5.74712 -12.41192,3.61351 z m 7.88397,-7.30874 c 3.90466,-3.43701 5.73116,-8.25455 4.20839,-11.09988 -0.95841,-1.7908 -2.76451,-1.26626 -5.39697,1.56736 -4.16391,4.48211 -6.14652,9.64879 -4.38026,11.41501 1.18506,1.18507 2.64431,0.69178 5.56884,-1.88249 z m -63.57041,2.74131 c -1.00916,-1.00916 -0.81746,-3.66897 0.30615,-4.2476 0.53576,-0.27589 2.35181,-0.66984 4.03563,-0.87546 4.00536,-0.48912 6.51791,-1.3137 8.89625,-2.91962 2.43897,-1.6469 3.21537,-1.63791 6.21527,0.0719 1.33241,0.75943 4.2426,1.78743 6.46713,2.28441 4.29365,0.95925 5.81288,2.17099 5.27947,4.21086 -0.68057,2.60246 -4.97884,2.51319 -11.81324,-0.24539 l -3.04582,-1.22936 -2.56346,1.22801 c -4.69648,2.2498 -12.29938,3.20015 -13.77738,1.72215 z m 82.68841,-10.50935 c -0.69559,-0.40516 -0.97411,-1.27196 -0.97411,-3.03175 0,-2.01442 0.25407,-2.63084 1.39159,-3.37616 1.2891,-0.84465 1.4941,-0.84465 2.7832,0 1.64272,1.07635 1.89232,3.82 0.52507,5.772 -0.93183,1.33038 -2.17046,1.54179 -3.72575,0.63591 z M 170.73922,703.40378 c -1.55254,-1.08744 -1.51179,-3.30294 0.079,-4.30504 0.68885,-0.43385 2.75538,-0.96064 4.59227,-1.17062 4.6141,-0.52746 15.59982,-2.86467 19.17148,-4.0787 l 2.95717,-1.00518 1.20764,-4.1449 c 2.90859,-9.98295 7.422,-15.91672 18.6898,-24.57133 7.77602,-5.97267 12.03248,-11.33074 14.86085,-18.70711 1.85994,-4.85063 2.05669,-11.5633 0.48941,-16.69664 l -1.0705,-3.50628 1.15902,-1.15902 c 1.69467,-1.69467 3.507,-0.99278 7.34405,2.84424 3.95926,3.95928 7.45012,10.65014 8.73298,16.73842 1.10414,5.24015 0.75499,12.10787 -0.93376,18.36644 -1.07599,3.98767 -2.31556,6.71535 -8.09589,17.81494 -1.8016,3.45953 -3.00387,8.49123 -3.00387,12.57169 0,3.3981 0.0166,3.43502 1.73948,3.77952 0.95674,0.19145 2.40391,0.34789 3.21597,0.34789 3.46515,0 5.29305,3.55238 2.6983,5.24392 -1.09664,0.7149 -2.00373,0.71742 -7.29197,0.0209 -8.66878,-1.14274 -15.20382,-2.30811 -23.47857,-4.18669 l -7.25261,-1.64656 -4.99339,1.69494 c -8.41048,2.85483 -16.8724,4.78299 -27.61635,6.2927 -1.29746,0.18233 -2.44983,-0.011 -3.20066,-0.53691 z m 60.30293,-12.30887 c 0.61638,-6.16234 2.39597,-11.76982 5.4322,-17.11659 1.56464,-2.75536 2.97908,-5.2602 3.14319,-5.56639 0.34651,-0.6464 0.0796,-0.44959 -5.4817,4.04014 -2.29612,1.85377 -5.1002,4.33319 -6.23125,5.50986 -2.649,2.75578 -5.32487,8.5278 -5.784,12.47644 l -0.36057,3.10078 3.26559,0.57572 c 5.94175,1.04751 5.59215,1.22298 6.01654,-3.01996 z m -14.26218,-3.00955 c 1.35082,-7.87741 4.95224,-13.26385 13.14633,-19.66225 8.34489,-6.51617 11.45617,-10.98577 12.60263,-18.10463 0.60638,-3.76518 -0.0504,-8.85257 -1.57988,-12.23923 -0.84115,-1.8625 -0.89037,-1.88827 -1.07076,-0.56066 -1.91192,14.07304 -7.38838,22.62697 -21.11063,32.97367 -7.4868,5.64508 -11.36252,10.6151 -13.91131,17.83921 -0.75815,2.14884 -0.74996,2.18108 0.47728,1.874 0.68677,-0.17186 3.00211,0.15458 5.14514,0.72531 5.81547,1.54883 5.52519,1.6799 6.3012,-2.84542 z m 68.37661,-10.51879 c -0.7993,-0.62869 -1.74101,-2.10351 -2.09268,-3.27735 -0.567,-1.89249 -0.48046,-2.48144 0.76401,-5.19975 2.30077,-5.02556 9.16398,-9.54217 12.81779,-8.43529 3.48627,1.05614 4.85358,4.39841 3.54894,8.67527 -1.11134,3.64328 -3.34033,6.31057 -6.65326,7.96148 -3.47137,1.72986 -6.41312,1.82657 -8.3848,0.27564 z m 5.73473,-5.24706 c 0.87621,-0.45309 2.11622,-1.48882 2.75554,-2.3016 1.21152,-1.54019 1.56032,-3.55419 0.61556,-3.55419 -0.94569,0 -5.57615,4.77422 -5.57615,5.74926 0,1.13826 0.19208,1.1475 2.20505,0.10642 z m -94.49545,-36.58215 c -2.06574,-2.06575 0.65207,-6.27728 3.17841,-4.9252 1.91894,1.02697 2.49097,2.67826 1.4684,4.23892 -0.9698,1.48011 -3.48197,1.85111 -4.64681,0.68628 z m 124.13004,-6.12299 c -0.8416,-0.84162 -0.84531,-2.22911 -0.0129,-5.00582 1.01134,-3.37554 4.05537,-4.2028 5.50411,-1.49581 0.73348,1.37049 -0.76287,6.34569 -2.05804,6.84267 -1.34993,0.51803 -2.70862,0.38303 -3.43269,-0.34104 z m -56.60999,-7.58948 c -8.64826,-4.11148 -8.40108,-16.14581 0.4072,-19.82617 4.40144,-1.83902 9.1634,-0.59979 12.55988,3.26855 4.03194,4.59215 2.81212,12.26548 -2.53196,15.9273 -2.61281,1.79033 -7.38829,2.07877 -10.43512,0.63032 z m 7.32233,-5.62009 c 3.19611,-1.94885 2.95735,-6.94855 -0.41511,-8.69255 -2.29367,-1.18608 -3.61367,-1.00029 -5.61816,0.79069 -1.4136,1.26306 -1.79001,2.03876 -1.79001,3.68869 0,1.64992 0.37641,2.42563 1.79001,3.68864 2.09334,1.87043 3.60982,2.00225 6.03327,0.52453 z M 150.10029,578.45242 c -5.53529,-2.2091 -8.80481,-8.6468 -7.27564,-14.32567 0.7153,-2.6564 3.78507,-6.37401 6.38219,-7.72904 0.97987,-0.51122 3.13979,-0.90933 5.05162,-0.93106 10.31487,-0.11745 15.79758,11.81335 8.9912,19.56542 -0.95995,1.09333 -2.74947,2.44403 -3.97669,3.00154 -2.41543,1.09728 -6.95343,1.30451 -9.17268,0.41881 z m 7.54233,-5.9966 c 5.3492,-3.26192 2.89032,-11.19649 -3.4697,-11.19649 -3.53263,0 -5.75919,2.21405 -5.75919,5.7268 0,5.19742 4.9066,8.10542 9.22889,5.46969 z"
       id="path16008" />
  </g>
</svg>
