<?xml version="1.0" encoding="UTF-8" standalone="no"?>
<!-- Created with Inkscape (http://www.inkscape.org/) -->

<svg
   width="390.21219mm"
   height="844.33917mm"
   viewBox="0 0 390.21219 844.33918"
   version="1.1"
   id="svg12236"
   inkscape:version="1.1.1 (3bf5ae0d25, 2021-09-20)"
   sodipodi:docname="background.svg"
   xmlns:inkscape="http://www.inkscape.org/namespaces/inkscape"
   xmlns:sodipodi="http://sodipodi.sourceforge.net/DTD/sodipodi-0.dtd"
   xmlns="http://www.w3.org/2000/svg"
   xmlns:svg="http://www.w3.org/2000/svg">
  <sodipodi:namedview
     id="namedview12238"
     pagecolor="#ffffff"
     bordercolor="#666666"
     borderopacity="1.0"
     inkscape:pageshadow="2"
     inkscape:pageopacity="0.0"
     inkscape:pagecheckerboard="0"
     inkscape:document-units="mm"
     showgrid="false"
     inkscape:zoom="0.1263006"
     inkscape:cx="-898.64974"
     inkscape:cy="1278.6954"
     inkscape:window-width="1920"
     inkscape:window-height="991"
     inkscape:window-x="-9"
     inkscape:window-y="-9"
     inkscape:window-maximized="1"
     inkscape:current-layer="layer1"
     showguides="false">
    <sodipodi:guide
       position="0.21239882,844.33918"
       orientation="0,898.57564"
       id="guide17131" />
    <sodipodi:guide
       position="237.96053,844.33918"
       orientation="1254.0868,0"
       id="guide17133" />
    <sodipodi:guide
       position="237.96053,512.52872"
       orientation="0,-898.57564"
       id="guide17135" />
    <sodipodi:guide
       position="0.21239882,512.52872"
       orientation="-1254.0868,0"
       id="guide17137" />
  </sodipodi:namedview>
  <defs
     id="defs12233">
    <filter
       inkscape:label="Blur Double"
       inkscape:menu="Blurs"
       inkscape:menu-tooltip="Overlays two copies with different blur amounts and modifiable blend and composite"
       style="color-interpolation-filters:sRGB;"
       id="filter42647"
       x="-0.06462957"
       y="-0.087740662"
       width="1.1292591"
       height="1.1754813">
      <feGaussianBlur
         stdDeviation="5"
         result="fbSourceGraphic"
         id="feGaussianBlur42639" />
      <feGaussianBlur
         stdDeviation="0.01"
         in="SourceGraphic"
         result="result1"
         id="feGaussianBlur42641" />
      <feComposite
         in2="result1"
         operator="arithmetic"
         in="fbSourceGraphic"
         k2="0.5"
         k3="0.5"
         result="result2"
         id="feComposite42643" />
      <feBlend
         in2="fbSourceGraphic"
         mode="normal"
         result="fbSourceGraphic"
         id="feBlend42645" />
      <feColorMatrix
         result="fbSourceGraphicAlpha"
         in="fbSourceGraphic"
         values="0 0 0 -1 0 0 0 0 -1 0 0 0 0 -1 0 0 0 0 1 0"
         id="feColorMatrix42705" />
      <feMorphology
         id="feMorphology42707"
         radius="4"
         in="fbSourceGraphic"
         result="result0" />
      <feGaussianBlur
         id="feGaussianBlur42709"
         in="result0"
         stdDeviation="8"
         result="result91" />
      <feComposite
         in2="result91"
         id="feComposite42711"
         operator="in"
         in="fbSourceGraphic"
         result="fbSourceGraphic" />
      <feColorMatrix
         result="fbSourceGraphicAlpha"
         in="fbSourceGraphic"
         values="0 0 0 -1 0 0 0 0 -1 0 0 0 0 -1 0 0 0 0 1 0"
         id="feColorMatrix42731" />
      <feGaussianBlur
         id="feGaussianBlur42733"
         stdDeviation="5"
         result="fbSourceGraphic"
         in="fbSourceGraphic" />
      <feGaussianBlur
         id="feGaussianBlur42735"
         stdDeviation="0.01"
         in="fbSourceGraphic"
         result="result1" />
      <feComposite
         in2="result1"
         id="feComposite42737"
         operator="arithmetic"
         in="fbSourceGraphic"
         k2="0.5"
         k3="0.5"
         result="result2" />
      <feBlend
         in2="fbSourceGraphic"
         id="feBlend42739"
         mode="normal"
         result="fbSourceGraphic" />
      <feColorMatrix
         result="fbSourceGraphicAlpha"
         in="fbSourceGraphic"
         values="0 0 0 -1 0 0 0 0 -1 0 0 0 0 -1 0 0 0 0 1 0"
         id="feColorMatrix42759" />
      <feGaussianBlur
         id="feGaussianBlur42761"
         stdDeviation="5"
         result="fbSourceGraphic"
         in="fbSourceGraphic" />
      <feGaussianBlur
         id="feGaussianBlur42763"
         stdDeviation="0.01"
         in="fbSourceGraphic"
         result="result1" />
      <feComposite
         in2="result1"
         id="feComposite42765"
         operator="arithmetic"
         in="fbSourceGraphic"
         k2="0.5"
         k3="0.5"
         result="result2" />
      <feBlend
         in2="fbSourceGraphic"
         id="feBlend42767"
         mode="normal"
         result="fbSourceGraphic" />
      <feColorMatrix
         result="fbSourceGraphicAlpha"
         in="fbSourceGraphic"
         values="0 0 0 -1 0 0 0 0 -1 0 0 0 0 -1 0 0 0 0 1 0"
         id="feColorMatrix42819" />
      <feGaussianBlur
         id="feGaussianBlur42821"
         stdDeviation="5"
         result="fbSourceGraphic"
         in="fbSourceGraphic" />
      <feGaussianBlur
         id="feGaussianBlur42823"
         stdDeviation="0.01"
         in="fbSourceGraphic"
         result="result1" />
      <feComposite
         in2="result1"
         id="feComposite42825"
         operator="arithmetic"
         in="fbSourceGraphic"
         k2="0.5"
         k3="0.5"
         result="result2" />
      <feBlend
         in2="fbSourceGraphic"
         id="feBlend42827"
         mode="normal"
         result="fbSourceGraphic" />
      <feColorMatrix
         result="fbSourceGraphicAlpha"
         in="fbSourceGraphic"
         values="0 0 0 -1 0 0 0 0 -1 0 0 0 0 -1 0 0 0 0 1 0"
         id="feColorMatrix42847" />
      <feGaussianBlur
         id="feGaussianBlur42849"
         stdDeviation="5"
         result="fbSourceGraphic"
         in="fbSourceGraphic" />
      <feGaussianBlur
         id="feGaussianBlur42851"
         stdDeviation="0.01"
         in="fbSourceGraphic"
         result="result1" />
      <feComposite
         in2="result1"
         id="feComposite42853"
         operator="arithmetic"
         in="fbSourceGraphic"
         k2="0.5"
         k3="0.5"
         result="result2" />
      <feBlend
         in2="fbSourceGraphic"
         id="feBlend42855"
         mode="normal"
         result="fbSourceGraphic" />
      <feColorMatrix
         result="fbSourceGraphicAlpha"
         in="fbSourceGraphic"
         values="0 0 0 -1 0 0 0 0 -1 0 0 0 0 -1 0 0 0 0 1 0"
         id="feColorMatrix42875" />
      <feGaussianBlur
         id="feGaussianBlur42877"
         stdDeviation="5"
         result="fbSourceGraphic"
         in="fbSourceGraphic" />
      <feGaussianBlur
         id="feGaussianBlur42879"
         stdDeviation="0.01"
         in="fbSourceGraphic"
         result="result1" />
      <feComposite
         in2="result1"
         id="feComposite42881"
         operator="arithmetic"
         in="fbSourceGraphic"
         k2="0.5"
         k3="0.5"
         result="result2" />
      <feBlend
         in2="fbSourceGraphic"
         id="feBlend42883"
         mode="normal"
         result="fbSourceGraphic" />
      <feColorMatrix
         result="fbSourceGraphicAlpha"
         in="fbSourceGraphic"
         values="0 0 0 -1 0 0 0 0 -1 0 0 0 0 -1 0 0 0 0 1 0"
         id="feColorMatrix42903" />
      <feGaussianBlur
         id="feGaussianBlur42905"
         stdDeviation="5"
         result="fbSourceGraphic"
         in="fbSourceGraphic" />
      <feGaussianBlur
         id="feGaussianBlur42907"
         stdDeviation="0.01"
         in="fbSourceGraphic"
         result="result1" />
      <feComposite
         in2="result1"
         id="feComposite42909"
         operator="arithmetic"
         in="fbSourceGraphic"
         k2="0.5"
         k3="0.5"
         result="result2" />
      <feBlend
         in2="fbSourceGraphic"
         id="feBlend42911"
         mode="normal"
         result="result3" />
    </filter>
  </defs>
  <g
     inkscape:label="Lager 1"
     inkscape:groupmode="layer"
     id="layer1"
     transform="translate(15.766019,26.66334)">
    <rect
       style="fill:#432f28;fill-opacity:1;stroke:#ffcc00;stroke-width:0"
       id="rect43085"
       width="580.66827"
       height="974.6933"
       x="-86.868256"
       y="-82.952614"
       ry="0.15452036" />
    <rect
       style="fill:#000000;fill-opacity:0;stroke:none;stroke-width:0"
       id="rect12319"
       width="234.78554"
       height="313.29425"
       x="-12.591022"
       y="-8.1471319"
       ry="0.18261489" />
    <path
       style="fill:#614b43;stroke-width:0.556637;fill-opacity:1"
       d="m 101.79528,786.98921 c -1.45528,-1.05934 -1.63532,-3.16934 -0.37772,-4.42692 0.6294,-0.62944 1.99531,-0.87882 4.87056,-0.88933 5.39592,-0.0189 7.23902,-0.97615 13.11228,-6.80421 6.47351,-6.42373 6.63344,-6.42468 12.88309,-0.0784 5.24704,5.32817 7.89195,6.86697 11.83416,6.88505 4.09549,0.0189 6.36872,-1.27342 11.89103,-6.75956 3.90192,-3.87636 5.44237,-5.05673 6.59934,-5.05673 1.15693,0 2.69739,1.18037 6.5993,5.05673 5.5223,5.48614 7.79551,6.77836 11.89096,6.75956 3.94221,-0.0189 6.58712,-1.55688 11.83416,-6.88505 6.25421,-6.35093 6.36728,-6.34926 13.03648,0.19102 5.49207,5.38587 7.80479,6.70628 11.74615,6.70628 3.92778,0 6.14281,-1.26935 11.66496,-6.68473 3.86951,-3.79469 5.46505,-5.00465 6.59947,-5.00465 h 1.49615 v -6.41518 -6.41522 l -3.24597,-3.18677 c -4.04532,-3.97155 -5.10357,-6.76394 -5.10357,-13.46679 0,-7.83761 2.15277,-14.4312 7.22592,-22.13189 6.00426,-9.11404 15.43377,-17.83879 21.48382,-19.8781 1.43092,-0.48232 2.82337,-1.5744 4.03954,-3.16815 1.02072,-1.33765 3.45906,-4.37124 5.41849,-6.7413 l 3.56258,-4.30918 -0.63348,-2.74449 c -1.9441,-8.42231 5.39623,-20.88585 17.04206,-28.93663 8.7348,-6.03833 15.71167,-7.37945 20.46351,-3.93357 0.82952,0.60154 1.74945,1.0937 2.04432,1.0937 0.2949,0 1.68039,-1.33933 3.07889,-2.97632 l 2.54277,-2.97632 -2.13955,-2.24914 c -4.9493,-5.20278 -4.48622,-16.36172 1.08349,-26.10958 2.05258,-3.59228 5.61212,-7.29876 7.45326,-7.76084 0.77331,-0.19397 1.40602,-0.44157 1.40602,-0.54998 0,-0.10844 -0.52325,-1.64679 -1.16279,-3.41864 -1.65528,-4.58588 -3.6347,-6.28226 -7.33469,-6.28587 -3.80603,-0.003 -6.16369,-1.46129 -9.89967,-6.12018 -3.7427,-4.66726 -4.42496,-6.36845 -4.42496,-11.03357 0,-6.50454 -2.22284,-7.77824 -12.47618,-7.14885 -6.62792,0.40685 -12.51777,1.37198 -24.26186,3.97558 -13.65859,3.02807 -23.86847,3.12214 -34.54781,0.31837 -7.15539,-1.87857 -9.66507,-4.27058 -9.66507,-9.21196 0,-5.54789 2.67339,-7.62817 11.39701,-8.86857 9.40089,-1.33671 12.72962,-2.59506 22.79642,-8.6176 9.67357,-5.78733 20.4152,-9.61011 29.66144,-10.55608 9.99646,-1.0227 24.83355,0.61778 34.22264,3.78386 19.18473,6.46927 36.05132,21.17428 45.11667,39.33459 2.95821,5.92609 5.93837,14.58395 7.42798,21.57958 1.62105,7.61288 1.74148,22.49034 0.24847,30.69729 -3.29822,18.1299 -9.80578,35.22164 -19.85269,52.14185 -1.83703,3.09379 -3.27055,5.68151 -3.18563,5.75047 1.89396,1.53816 10.54417,3.5279 17.29935,3.97924 4.64455,0.31032 5.57548,0.5357 6.26217,1.5161 1.03437,1.47677 1.01808,2.28282 -0.0682,3.369 -1.86441,1.86443 -14.09806,0.68368 -22.45883,-2.16764 -2.27129,-0.77459 -4.19057,-1.34625 -4.26515,-1.27038 -0.38062,0.38743 -4.72709,10.68289 -5.98992,14.18831 -1.68918,4.68887 -4.0106,13.39032 -4.57316,17.14177 l -0.39092,2.60673 2.43808,-0.403 c 3.27627,-0.54152 7.06934,-1.8284 9.18342,-3.11563 2.26033,-1.37624 3.15341,-1.3334 5.95821,0.28595 3.46311,1.99942 9.37506,3.62475 14.66318,4.03123 3.87287,0.29769 4.83613,0.5627 5.50229,1.51377 1.03527,1.47807 1.01922,2.28389 -0.0671,3.37028 -1.87191,1.87193 -12.60892,0.57016 -19.72085,-2.39098 l -3.61814,-1.50643 -4.09026,1.57717 c -2.24964,0.86743 -5.67115,1.72478 -7.60334,1.9052 -3.19431,0.29831 -3.54909,0.46012 -3.90962,1.78304 -0.21811,0.80023 -0.45905,8.83395 -0.53545,17.85272 -0.13473,15.89451 -0.17443,16.42125 -1.29281,17.16393 -1.7556,1.16565 -3.33872,0.35911 -3.93763,-2.0061 -0.96683,-3.81814 -1.25859,-15.36277 -0.62165,-24.59764 1.62383,-23.54286 6.74853,-40.64377 17.86143,-59.6027 13.55397,-23.12356 20.35786,-42.24702 22.19005,-62.36898 2.36499,-25.97349 -10.60392,-53.67175 -31.7543,-67.81903 -6.22851,-4.16615 -9.69353,-5.94365 -16.64314,-8.53767 -8.55715,-3.19405 -13.70083,-3.97473 -26.16192,-3.97077 -10.29078,0.003 -11.11457,0.0838 -15.86414,1.55043 -6.91053,2.13393 -12.8593,4.79014 -19.4517,8.68549 -9.73965,5.75502 -15.79215,8.0051 -23.29999,8.66203 -5.61778,0.49154 -7.06733,1.12851 -7.06733,3.10555 0,2.22447 1.67781,3.14597 8.16697,4.4856 4.55719,0.9408 6.91124,1.08767 14.09849,0.8797 7.7055,-0.22297 9.63955,-0.49441 18.09071,-2.53894 16.65871,-4.03016 27.25249,-5.12763 35.66879,-3.69513 13.74216,2.33903 26.0805,8.93256 32.66929,17.45833 11.36802,14.71006 16.3642,33.91705 13.46799,51.7756 -2.45053,15.11026 -9.5084,27.1793 -26.71965,45.69072 -17.18769,18.48611 -28.41396,38.48609 -34.00131,60.57454 -1.7776,7.02725 -3.55103,18.02861 -3.55103,22.02825 0,2.53764 -1.72329,4.06689 -3.77416,3.34917 -1.36332,-0.47708 -1.53185,-0.83323 -1.69444,-3.5805 -0.42286,-7.14549 3.23131,-25.08787 7.42326,-36.44893 4.83387,-13.10074 14.13142,-29.33775 23.31062,-40.70905 2.01015,-2.4902 6.1505,-7.18186 9.20076,-10.42588 16.21867,-17.2489 23.62567,-30.94077 24.99182,-46.19735 2.05299,-22.92677 -8.98098,-44.06498 -28.0079,-53.65587 -1.83688,-0.92593 -4.68053,-2.08151 -6.31921,-2.56798 l -2.97941,-0.8845 0.45746,1.5177 c 0.25164,0.83473 0.46518,3.15628 0.47457,5.159 0.0166,3.55297 0.0892,3.73196 2.98874,7.37723 2.66563,3.35113 5.11,5.0207 6.01933,4.11137 0.17131,-0.1713 -0.49138,-1.42903 -1.47244,-2.79513 -1.26297,-1.75866 -1.67546,-2.82507 -1.41281,-3.6526 0.48576,-1.53049 2.14631,-2.38398 3.5953,-1.84798 1.55102,0.57377 5.66067,6.12204 8.33781,11.2565 2.59161,4.97045 6.29224,15.74543 5.8255,16.96178 -0.36094,0.9406 -1.54441,1.31035 -4.91997,1.53718 -1.92677,0.1294 -2.47528,0.50267 -4.3089,2.93157 -5.70871,7.56209 -7.12995,18.59671 -2.83076,21.97844 2.37121,1.86521 3.95106,1.45614 7.15618,-1.85297 3.46862,-3.58115 5.25278,-7.8355 5.25278,-12.52537 0,-3.9026 0.83394,-5.26121 3.07138,-5.00385 2.66184,0.3062 3.40751,2.31699 2.69452,7.2661 -1.16246,8.06905 -6.52464,16.17672 -11.9721,18.10192 -1.84128,0.65075 -3.26796,1.63649 -4.23923,2.92908 -0.80515,1.07153 -2.66687,3.34534 -4.13713,5.0529 l -2.67317,3.10471 -0.006,4.96654 c -0.0147,10.91471 -4.59332,19.71661 -13.56521,26.07646 -6.31774,4.47844 -12.67668,7.03226 -14.74884,5.92327 -2.71288,-1.45188 -1.77748,-4.52881 1.6879,-5.55228 6.34247,-1.87314 14.49393,-8.03995 17.57348,-13.2948 3.08862,-5.27033 4.41433,-13.97418 2.64854,-17.38883 -0.94171,-1.82112 -3.40789,-3.32162 -5.45929,-3.32162 -3.93753,0 -11.75391,4.65994 -17.56696,10.47297 -5.71757,5.71759 -8.90983,13.13313 -7.71231,17.91553 1.23519,4.93283 1.27322,4.76577 -1.92855,8.47298 -1.66002,1.92209 -3.96015,4.67007 -5.11136,6.10662 l -2.09313,2.61196 2.20297,1.12385 c 4.25318,2.16982 8.17488,7.5024 7.4778,10.16807 -0.32807,1.25457 -2.48226,2.26444 -3.77346,1.76896 -0.47492,-0.18215 -1.32714,-1.23981 -1.89383,-2.35008 -1.29079,-2.52908 -2.55442,-3.68079 -5.29477,-4.82577 -4.13132,-1.72619 -8.29845,0.0884 -15.20942,6.62301 -4.99673,4.72464 -10.03094,11.31578 -12.34313,16.16052 -3.30047,6.91554 -4.29242,15.23301 -2.33149,19.54949 2.0414,4.49358 7.30309,7.49106 11.71401,6.67323 5.18297,-0.961 14.21969,-7.93292 18.68403,-14.41494 2.35834,-3.42417 3.05839,-3.86466 4.98076,-3.13376 2.12626,0.8084 2.31107,2.5378 0.55601,5.20239 -6.38057,9.68697 -16.77207,17.32651 -24.62425,18.103 l -3.72079,0.36795 0.058,8.50574 c 0.0553,8.08535 0.12185,8.57358 1.34692,9.87761 2.09009,2.22482 6.54556,4.16044 9.57654,4.16044 4.08646,0 6.24456,-1.2209 11.81612,-6.68473 3.53361,-3.46528 5.51007,-5.00465 6.42571,-5.00465 0.91567,0 2.89213,1.53937 6.42572,5.00465 5.60748,5.49906 7.72379,6.68473 11.9315,6.68473 4.10075,0 6.93907,-1.61143 12.26094,-6.96108 3.35955,-3.37711 5.09501,-4.7283 6.073,-4.7283 0.97469,0 2.83996,1.44225 6.47259,5.00465 5.56937,5.46168 7.741,6.69108 11.78629,6.6725 4.01511,-0.0189 6.95095,-1.69012 12.67356,-7.21651 3.94366,-3.80843 5.44495,-4.93215 6.22107,-4.65644 0.56267,0.19987 3.30393,2.57778 6.09173,5.28424 2.78777,2.70646 5.97344,5.29886 7.07923,5.76088 1.10581,0.46205 3.62624,0.84006 5.60102,0.84006 1.97478,0 3.99367,0.15458 4.48644,0.34382 1.41944,0.5447 2.04867,2.18179 1.4469,3.76457 -0.70867,1.86395 -3.32209,2.32193 -8.69206,1.52324 -5.40594,-0.80404 -7.73877,-2.04406 -12.68571,-6.74316 l -4.05257,-3.84956 -3.77042,3.79952 c -4.1901,4.22247 -7.26267,6.01501 -11.44284,6.6758 -6.37384,1.00757 -11.76785,-1.08506 -17.45427,-6.7715 l -3.81193,-3.81193 -4.59129,4.4078 c -5.18742,4.98014 -8.12008,6.33911 -13.67989,6.33911 -5.54457,0 -8.49588,-1.36228 -13.63036,-6.29158 l -4.54177,-4.36028 -2.46413,2.52848 c -5.7249,5.87433 -10.13663,8.07966 -16.20103,8.09865 -5.31548,0.0166 -9.23111,-1.86482 -14.10708,-6.77847 l -3.80622,-3.8356 -4.05258,3.84956 c -4.69303,4.45789 -7.22384,5.89788 -11.56112,6.57803 -6.58613,1.03281 -11.25666,-0.75816 -17.33484,-6.64727 l -3.92531,-3.80318 -3.52702,3.5586 c -4.20878,4.24655 -7.60165,6.20983 -11.89514,6.88312 -6.65934,1.04429 -11.80138,-0.95833 -17.6735,-6.88312 l -3.52698,-3.5586 -4.01225,3.89045 c -5.28521,5.12477 -8.81561,6.77448 -14.45011,6.75239 -5.63363,-0.0221 -9.13246,-1.66515 -14.37897,-6.75239 l -4.01227,-3.89045 -3.58929,3.63223 c -4.75301,4.80993 -8.77628,6.78618 -14.72201,7.23152 -3.6184,0.27102 -4.68788,0.16266 -5.70553,-0.57814 z m 3.88116,-15.07437 c -0.68042,-0.47657 -1.23715,-1.36602 -1.23715,-1.97657 0,-0.61051 1.36739,-3.93293 3.03866,-7.38314 12.78864,-26.40132 12.02591,-51.44739 -2.67367,-87.79699 -4.49294,-11.11027 -5.944358,-16.8857 -5.911913,-23.52426 0.02459,-5.05275 1.153263,-11.27769 2.914653,-16.07628 4.86267,-13.24765 17.24875,-23.79737 31.57743,-26.89569 4.8435,-1.04734 13.61043,-1.00604 18.53754,0.0873 20.49364,4.54763 31.72465,25.98219 22.5919,43.11697 -2.15222,4.03795 -7.12073,8.7991 -11.18569,10.71884 -7.03324,3.32156 -16.34829,3.39431 -22.56829,0.17627 -0.99498,-0.51479 -1.80529,-0.74167 -1.80066,-0.50419 0.003,0.23746 1.2792,2.15445 2.83237,4.25992 l 2.824,3.82815 2.87318,-0.34954 c 1.58022,-0.19229 3.77365,-0.50112 4.87419,-0.68632 1.71697,-0.28896 2.29507,-0.0787 4.07216,1.48169 2.76633,2.42888 6.66769,7.56064 8.74863,11.50781 2.07411,3.93418 1.924,5.51959 -0.9294,9.81711 -2.37648,3.57926 -2.40063,3.23389 0.82274,11.76406 3.21207,8.50026 3.24298,8.54928 5.83266,9.24661 3.11095,0.8377 5.15788,2.41662 6.47182,4.9922 3.29475,6.45824 5.50163,21.96516 3.72628,26.18316 -0.46621,1.10772 -1.8136,2.72158 -2.99413,3.58638 -3.58692,2.62757 -3.53805,2.46297 -3.53805,11.91622 0,9.38393 -0.4706,11.15899 -2.95391,11.14166 -2.70957,-0.0189 -2.75444,-0.22278 -2.83306,-12.8723 -0.0616,-9.91894 -0.29957,-13.16306 -1.43552,-19.57343 -1.45672,-8.22038 -1.328,-9.40154 1.06306,-9.75571 2.23412,-0.33094 3.2096,1.29461 4.22615,7.04239 0.52403,2.96313 1.12198,5.98465 1.32872,6.71451 0.36353,1.28316 0.40937,1.29353 1.38891,0.31398 0.89429,-0.89429 0.96703,-1.60028 0.62078,-6.02634 -0.42792,-5.4702 -1.96906,-12.22582 -3.49632,-15.32642 -0.75852,-1.53989 -1.57253,-2.18252 -3.72941,-2.94418 -4.12142,-1.45541 -5.49002,-3.22117 -8.1103,-10.46394 -1.27373,-3.52073 -3.79531,-9.21757 -5.60355,-12.65965 -3.30815,-6.29727 -3.85066,-8.26354 -2.61972,-9.49451 1.60642,-1.60642 3.66754,-0.54323 5.75642,2.96941 0.52477,0.88242 0.67785,0.82493 1.61598,-0.60682 1.02839,-1.56955 1.02481,-1.60353 -0.47119,-4.46083 -0.82909,-1.58359 -2.68348,-4.18398 -4.12084,-5.77864 l -2.61336,-2.89941 -4.85725,0.71065 c -4.83566,0.7075 -4.86371,0.70459 -6.31033,-0.65136 -4.00865,-3.75749 -9.30288,-12.27258 -11.96537,-19.24485 l -1.67363,-4.38263 0.233,5.00974 c 0.28431,6.11317 1.22089,8.61973 6.26271,16.76113 17.58907,28.40239 24.96218,61.16301 20.53148,91.22642 -0.99955,6.78217 -1.83183,8.62787 -3.89054,8.62787 -2.51315,0 -3.09119,-1.84245 -2.18295,-6.95795 3.49294,-19.67325 1.19253,-43.03693 -6.20633,-63.03404 -2.83946,-7.67429 -9.47024,-21.09689 -13.82028,-27.97611 -5.01801,-7.93558 -6.5905,-12.83443 -6.61102,-20.59557 -0.0259,-9.85038 1.93706,-15.24765 7.60589,-20.91174 4.68419,-4.68028 8.22501,-6.07938 15.36996,-6.07321 4.63789,0.003 5.63029,0.18534 8.07128,1.47516 5.15415,2.72341 7.5146,6.41206 7.5146,11.74299 0,3.21999 -0.64887,4.30398 -2.57641,4.30398 -1.8067,0 -2.98995,-1.46938 -2.98995,-3.71295 0,-5.16859 -3.86271,-8.25859 -10.29784,-8.2379 -4.31631,0.0147 -6.57709,0.90218 -9.60201,3.77281 -2.04776,1.94328 -2.2466,3.44727 -1.04437,7.89971 2.93243,10.86034 10.21914,15.86312 20.67286,14.19315 6.95664,-1.11133 12.11938,-4.87022 15.12407,-11.0116 2.10254,-4.29743 2.48704,-11.70861 0.84858,-16.35594 -2.16181,-6.13167 -7.3591,-12.07003 -13.05477,-14.91618 -7.87819,-3.93677 -18.85746,-4.42526 -27.56199,-1.22628 -14.5111,5.33294 -23.12334,15.98402 -25.17138,31.13034 -1.08751,8.0428 0.0579,14.15764 4.73142,25.25808 5.51311,13.09474 9.66349,27.66549 11.7456,41.23531 1.17161,7.63587 0.74464,21.82548 -0.88849,29.52835 -2.79735,13.19387 -10.44622,30.46959 -13.49047,30.46959 -0.10514,0 -0.74775,-0.38994 -1.42817,-0.86653 z m 140.83949,-31.41542 c -3.02007,-1.84135 -4.14044,-4.18685 -3.86202,-8.08509 0.42709,-5.97946 4.84701,-12.56712 10.67453,-15.90978 3.19565,-1.83305 4.64231,-1.9775 7.2781,-0.7267 6.01194,2.85284 5.09917,14.33022 -1.67869,21.10806 -4.44702,4.44702 -8.91257,5.74712 -12.41192,3.61351 z m 7.88397,-7.30874 c 3.90466,-3.43701 5.73116,-8.25455 4.20839,-11.09988 -0.95841,-1.7908 -2.76451,-1.26626 -5.39697,1.56736 -4.16391,4.48211 -6.14652,9.64879 -4.38026,11.41501 1.18506,1.18507 2.64431,0.69178 5.56884,-1.88249 z m -63.57041,2.74131 c -1.00916,-1.00916 -0.81746,-3.66897 0.30615,-4.2476 0.53576,-0.27589 2.35181,-0.66984 4.03563,-0.87546 4.00536,-0.48912 6.51791,-1.3137 8.89625,-2.91962 2.43897,-1.6469 3.21537,-1.63791 6.21527,0.0719 1.33241,0.75943 4.2426,1.78743 6.46713,2.28441 4.29365,0.95925 5.81288,2.17099 5.27947,4.21086 -0.68057,2.60246 -4.97884,2.51319 -11.81324,-0.24539 l -3.04582,-1.22936 -2.56346,1.22801 c -4.69648,2.2498 -12.29938,3.20015 -13.77738,1.72215 z m 82.68841,-10.50935 c -0.69559,-0.40516 -0.97411,-1.27196 -0.97411,-3.03175 0,-2.01442 0.25407,-2.63084 1.39159,-3.37616 1.2891,-0.84465 1.4941,-0.84465 2.7832,0 1.64272,1.07635 1.89232,3.82 0.52507,5.772 -0.93183,1.33038 -2.17046,1.54179 -3.72575,0.63591 z M 170.73922,703.40378 c -1.55254,-1.08744 -1.51179,-3.30294 0.079,-4.30504 0.68885,-0.43385 2.75538,-0.96064 4.59227,-1.17062 4.6141,-0.52746 15.59982,-2.86467 19.17148,-4.0787 l 2.95717,-1.00518 1.20764,-4.1449 c 2.90859,-9.98295 7.422,-15.91672 18.6898,-24.57133 7.77602,-5.97267 12.03248,-11.33074 14.86085,-18.70711 1.85994,-4.85063 2.05669,-11.5633 0.48941,-16.69664 l -1.0705,-3.50628 1.15902,-1.15902 c 1.69467,-1.69467 3.507,-0.99278 7.34405,2.84424 3.95926,3.95928 7.45012,10.65014 8.73298,16.73842 1.10414,5.24015 0.75499,12.10787 -0.93376,18.36644 -1.07599,3.98767 -2.31556,6.71535 -8.09589,17.81494 -1.8016,3.45953 -3.00387,8.49123 -3.00387,12.57169 0,3.3981 0.0166,3.43502 1.73948,3.77952 0.95674,0.19145 2.40391,0.34789 3.21597,0.34789 3.46515,0 5.29305,3.55238 2.6983,5.24392 -1.09664,0.7149 -2.00373,0.71742 -7.29197,0.0209 -8.66878,-1.14274 -15.20382,-2.30811 -23.47857,-4.18669 l -7.25261,-1.64656 -4.99339,1.69494 c -8.41048,2.85483 -16.8724,4.78299 -27.61635,6.2927 -1.29746,0.18233 -2.44983,-0.011 -3.20066,-0.53691 z m 60.30293,-12.30887 c 0.61638,-6.16234 2.39597,-11.76982 5.4322,-17.11659 1.56464,-2.75536 2.97908,-5.2602 3.14319,-5.56639 0.34651,-0.6464 0.0796,-0.44959 -5.4817,4.04014 -2.29612,1.85377 -5.1002,4.33319 -6.23125,5.50986 -2.649,2.75578 -5.32487,8.5278 -5.784,12.47644 l -0.36057,3.10078 3.26559,0.57572 c 5.94175,1.04751 5.59215,1.22298 6.01654,-3.01996 z m -14.26218,-3.00955 c 1.35082,-7.87741 4.95224,-13.26385 13.14633,-19.66225 8.34489,-6.51617 11.45617,-10.98577 12.60263,-18.10463 0.60638,-3.76518 -0.0504,-8.85257 -1.57988,-12.23923 -0.84115,-1.8625 -0.89037,-1.88827 -1.07076,-0.56066 -1.91192,14.07304 -7.38838,22.62697 -21.11063,32.97367 -7.4868,5.64508 -11.36252,10.6151 -13.91131,17.83921 -0.75815,2.14884 -0.74996,2.18108 0.47728,1.874 0.68677,-0.17186 3.00211,0.15458 5.14514,0.72531 5.81547,1.54883 5.52519,1.6799 6.3012,-2.84542 z m 68.37661,-10.51879 c -0.7993,-0.62869 -1.74101,-2.10351 -2.09268,-3.27735 -0.567,-1.89249 -0.48046,-2.48144 0.76401,-5.19975 2.30077,-5.02556 9.16398,-9.54217 12.81779,-8.43529 3.48627,1.05614 4.85358,4.39841 3.54894,8.67527 -1.11134,3.64328 -3.34033,6.31057 -6.65326,7.96148 -3.47137,1.72986 -6.41312,1.82657 -8.3848,0.27564 z m 5.73473,-5.24706 c 0.87621,-0.45309 2.11622,-1.48882 2.75554,-2.3016 1.21152,-1.54019 1.56032,-3.55419 0.61556,-3.55419 -0.94569,0 -5.57615,4.77422 -5.57615,5.74926 0,1.13826 0.19208,1.1475 2.20505,0.10642 z m -94.49545,-36.58215 c -2.06574,-2.06575 0.65207,-6.27728 3.17841,-4.9252 1.91894,1.02697 2.49097,2.67826 1.4684,4.23892 -0.9698,1.48011 -3.48197,1.85111 -4.64681,0.68628 z m 124.13004,-6.12299 c -0.8416,-0.84162 -0.84531,-2.22911 -0.0129,-5.00582 1.01134,-3.37554 4.05537,-4.2028 5.50411,-1.49581 0.73348,1.37049 -0.76287,6.34569 -2.05804,6.84267 -1.34993,0.51803 -2.70862,0.38303 -3.43269,-0.34104 z m -56.60999,-7.58948 c -8.64826,-4.11148 -8.40108,-16.14581 0.4072,-19.82617 4.40144,-1.83902 9.1634,-0.59979 12.55988,3.26855 4.03194,4.59215 2.81212,12.26548 -2.53196,15.9273 -2.61281,1.79033 -7.38829,2.07877 -10.43512,0.63032 z m 7.32233,-5.62009 c 3.19611,-1.94885 2.95735,-6.94855 -0.41511,-8.69255 -2.29367,-1.18608 -3.61367,-1.00029 -5.61816,0.79069 -1.4136,1.26306 -1.79001,2.03876 -1.79001,3.68869 0,1.64992 0.37641,2.42563 1.79001,3.68864 2.09334,1.87043 3.60982,2.00225 6.03327,0.52453 z M 150.10029,578.45242 c -5.53529,-2.2091 -8.80481,-8.6468 -7.27564,-14.32567 0.7153,-2.6564 3.78507,-6.37401 6.38219,-7.72904 0.97987,-0.51122 3.13979,-0.90933 5.05162,-0.93106 10.31487,-0.11745 15.79758,11.81335 8.9912,19.56542 -0.95995,1.09333 -2.74947,2.44403 -3.97669,3.00154 -2.41543,1.09728 -6.95343,1.30451 -9.17268,0.41881 z m 7.54233,-5.9966 c 5.3492,-3.26192 2.89032,-11.19649 -3.4697,-11.19649 -3.53263,0 -5.75919,2.21405 -5.75919,5.7268 0,5.19742 4.9066,8.10542 9.22889,5.46969 z"
       id="path16008" />
    <path
       id="path16008-6"
       style="fill:#614b43;fill-opacity:1;stroke-width:0.5746"
       d="m 39.853196,556.36241 c 2.216179,0.0124 4.326723,0.1136 6.261551,0.31153 9.544641,0.97652 20.632753,4.92251 30.618513,10.89663 10.391682,6.21692 13.827973,7.51583 23.53225,8.89567 9.00517,1.28046 11.76456,3.42801 11.76456,9.15495 0,5.10083 -2.59068,7.56994 -9.97697,9.50914 -11.024008,2.89425 -21.563339,2.79719 -35.662761,-0.32862 -12.12311,-2.6876 -18.202726,-3.68377 -25.044557,-4.10374 -10.584256,-0.64971 -12.878895,0.66516 -12.878895,7.37962 0,4.81567 -0.704375,6.57162 -4.567857,11.38953 -3.856571,4.80926 -6.290304,6.31446 -10.219171,6.31754 -3.8191834,0.003 -5.8629504,1.75492 -7.5716674,6.48879 -0.660176,1.82904 -1.200242,3.41733 -1.200242,3.52925 0,0.1119 0.653233,0.36736 1.451492,0.56759 1.900578,0.477 5.5750244,4.30301 7.6938254,8.01125 5.749471,10.06245 6.227689,21.58144 1.118632,26.95214 l -2.20899,2.32209 2.625095,3.07208 c 1.443613,1.68981 2.873817,3.07262 3.178234,3.07262 0.304395,0 1.254022,-0.50833 2.110311,-1.1293 4.9052,-3.55708 12.107053,-2.17264 21.123779,4.06056 12.021671,8.31063 19.599202,21.17653 17.592378,29.87063 l -0.654012,2.83313 3.677562,4.44838 c 2.022659,2.44654 4.539482,5.57791 5.593129,6.95873 1.255413,1.64519 2.692828,2.77264 4.169924,3.27054 6.245304,2.10511 15.979269,11.11119 22.177312,20.51939 5.236879,7.94922 7.459109,14.7557 7.459109,22.84623 0,6.91918 -1.09238,9.80179 -5.268258,13.90152 l -3.350556,3.28974 v 6.62215 6.62215 h 1.544318 c 1.171043,0 2.818191,1.24869 6.812596,5.16584 5.70037,5.59016 7.98684,6.90063 12.04137,6.90063 4.06856,0 6.45582,-1.36281 12.12516,-6.92249 4.0058,-3.92836 5.72273,-5.55506 7.72796,-4.95089 -0.11825,2.59699 -0.2213,5.16508 -0.2011,7.29751 2.3e-4,0.0237 0.003,0.0476 0.003,0.0714 l -0.63427,-0.64014 -4.05201,3.92561 c -6.27436,6.07916 -11.09563,7.92834 -17.89433,6.86221 -4.47727,-0.70212 -7.08969,-2.18897 -11.934162,-6.79073 l -4.1838,-3.97361 -3.928778,3.95921 c -5.033342,5.07222 -9.07542,7.01428 -14.562448,6.99715 -6.260126,-0.0197 -10.814274,-2.29565 -16.723938,-8.35956 l -2.543451,-2.61015 -4.688413,4.50068 c -5.300184,5.08837 -8.347113,6.49465 -14.070613,6.49465 -5.739256,0 -8.766434,-1.40289 -14.121266,-6.54373 l -4.73911,-4.54973 -3.935198,3.93465 c -5.8699504,5.86998 -11.4379974,8.03032 -18.0175364,6.99024 -4.315081,-0.68212 -7.4866906,-2.53279 -11.8120206,-6.89156 l -3.89252,-3.92185 -4.18326,3.97361 c -5.10658,4.85076 -7.51452,6.13088 -13.09493,6.96088 -5.54328,0.82447 -8.24095,0.35153 -8.9725,-1.57258 -0.62118,-1.63385 0.0284,-3.32352 1.49365,-3.88558 0.50867,-0.19536 2.59229,-0.35527 4.6308,-0.35527 2.03852,0 4.64049,-0.38989 5.78199,-0.86688 1.14147,-0.47691 4.42987,-3.15299 7.30762,-5.94679 2.87777,-2.7938 5.70738,-5.24865 6.28821,-5.45499 0.80117,-0.2846 2.35118,0.87551 6.42211,4.80686 5.9072896,5.70474 8.9379786,7.43 13.08266065,7.4495 4.17585395,0.0191 6.41764795,-1.25038 12.16676335,-6.88833 3.749858,-3.67735 5.675206,-5.16585 6.681339,-5.16585 1.009571,0 2.801054,1.3949 6.269028,4.881 5.493615,5.52229 8.423338,7.18548 12.656433,7.18548 4.343525,0 6.528201,-1.22409 12.316652,-6.90063 3.647629,-3.57712 5.688125,-5.16585 6.633345,-5.16585 0.945198,0 2.985171,1.58873 6.632834,5.16585 5.751351,5.64016 7.979347,6.90063 12.197664,6.90063 3.128817,0 7.727676,-1.99815 9.885233,-4.29475 1.264604,-1.34613 1.333595,-1.84993 1.39068,-10.19623 l 0.05976,-8.78045 -3.840781,-0.3798 c -8.10559,-0.80156 -18.832546,-8.68742 -25.419033,-18.68703 -1.811702,-2.75056 -1.620686,-4.53566 0.573971,-5.37016 1.984424,-0.75447 2.706882,-0.29989 5.141327,3.23481 4.608428,6.69122 13.936893,13.88781 19.287141,14.87984 4.553246,0.84422 9.984777,-2.24996 12.092049,-6.88834 2.024217,-4.45579 1.000636,-13.04192 -2.40637,-20.18065 -2.386786,-5.00112 -7.583781,-11.80468 -12.741777,-16.6818 -7.13402,-6.74551 -11.435605,-8.61851 -15.70028,-6.8366 -2.828784,1.18193 -4.133191,2.37059 -5.46564,4.98129 -0.584976,1.14609 -1.464811,2.23806 -1.95507,2.42609 -1.33286,0.51147 -3.556538,-0.53145 -3.895184,-1.82652 -0.719564,-2.7517 3.32898,-8.25615 7.719452,-10.496 l 2.274042,-1.16023 -2.160975,-2.69602 c -1.188357,-1.48291 -3.562658,-4.31955 -5.27626,-6.30369 -3.305111,-3.82685 -3.265864,-3.65429 -1.990811,-8.7463 1.236173,-4.93677 -2.05899,-12.59179 -7.961087,-18.4939 -6.000654,-6.00065 -14.069234,-10.81129 -18.133846,-10.81129 -2.117599,0 -4.663698,1.54907 -5.635792,3.42898 -1.822796,3.52483 -0.453882,12.5099 2.734412,17.9503 3.178924,5.42446 11.593059,11.79029 18.140244,13.72388 3.577213,1.0565 4.543175,4.23255 1.742733,5.73129 -2.139031,1.14479 -8.703341,-1.49133 -15.224954,-6.11431 -9.261444,-6.5651 -13.98769,-15.65106 -14.00288,-26.91801 l -0.0067,-5.12691 -2.759493,-3.20493 c -1.517712,-1.76265 -3.4395994,-4.10989 -4.2707284,-5.21598 -1.002639,-1.33431 -2.475139,-2.35181 -4.37584,-3.02355 -5.623258,-1.98734 -11.158797,-10.35702 -12.358777,-18.68649 -0.736,-5.10883 0.0342,-7.18434 2.7819,-7.50018 2.309643,-0.26566 3.170238,1.13676 3.170238,5.16532 0,4.84122 1.84188005,9.23282 5.422439,12.92955 3.308561,3.41591 4.939373,3.83833 7.3870944,1.91292 4.437964,-3.49085 2.970783,-14.88167 -2.9221904,-22.68783 -1.892722,-2.50705 -2.458881,-2.89264 -4.447834,-3.02619 -3.48449495,-0.23416 -4.706302,-0.61606 -5.078897,-1.58702 -0.481802,-1.25559 3.338233,-12.37828 6.01349,-17.50915 2.763544,-5.30016 7.0060084,-11.02768 8.6070874,-11.61997 1.495746,-0.55329 3.209726,0.3277 3.711156,1.9076 0.271124,0.85421 -0.154695,1.95547 -1.458424,3.77089 -1.012731,1.41019 -1.696631,2.70855 -1.519781,2.8854 0.938666,0.93845 3.461876,-0.78479 6.213524,-4.24408 2.993128,-3.76292 3.068295,-3.94779 3.085442,-7.61542 0.01002,-2.06736 0.22994,-4.46369 0.489702,-5.32536 l 0.472099,-1.56671 -3.075305,0.91272 c -1.691558,0.50216 -4.627289,1.69541 -6.523472,2.6512 -19.6408784,9.90043 -31.030728,31.7206 -28.911478,55.38729 1.41024,15.74898 9.0562296,29.88254 25.798318,47.68813 3.148691,3.34872 7.422379,8.19216 9.497393,10.76273 9.47546,11.73829 19.073168,28.49888 24.06306,42.02242 4.327223,11.72773 8.099392,30.24918 7.662891,37.62529 -0.167837,2.83594 -0.341839,3.20375 -1.749165,3.69621 -2.117043,0.74087 -3.89573,-0.8377 -3.89573,-3.45724 0,-4.12871 -1.831064,-15.48499 -3.665789,-22.73904 C 36.845896,742.85542 25.257076,722.20991 7.5146876,703.12721 -10.252044,684.01837 -17.537314,671.55978 -20.066924,655.96184 c -2.98969,-18.43491 2.16766,-38.26182 13.9025596,-53.44662 6.80142305,-8.80094 19.5379964,-15.60729 33.7236684,-18.02179 8.687918,-1.47875 19.623427,-0.34558 36.819786,3.81464 8.723882,2.1105 10.720546,2.39061 18.674745,2.6208 7.419193,0.21467 9.849088,0.0628 14.553346,-0.90846 6.698599,-1.38288 8.430529,-2.33402 8.430529,-4.63027 0,-2.04085 -1.49628,-2.69807 -7.29535,-3.20547 -7.750153,-0.67814 -13.997868,-3.0008 -24.05184,-8.94156 -6.805166,-4.02083 -12.946272,-6.76327 -20.079835,-8.96609 -4.902852,-1.51395 -5.753244,-1.59744 -16.376146,-1.60031 -12.863249,-0.004 -18.172714,0.80183 -27.006036,4.09896 -7.1738004,2.67773 -10.75050235,4.5124 -17.1800174,8.81299 -21.8329796,14.60387 -35.2208096,43.19612 -32.7794896,70.00789 1.89132,20.77136 8.91514,40.5118 22.90654,64.38166 11.4715456,19.57079 16.76164365,37.22401 18.4378786,61.52668 0.657495,9.5329 0.356305,21.45016 -0.641727,25.39128 -0.618236,2.44155 -2.25256495,3.27411 -4.064819,2.07084 -1.154474,-0.76665 -1.195602,-1.31027 -1.334674,-17.71774 -0.0789,-9.30984 -0.327496,-17.60276 -0.552651,-18.42883 -0.372162,-1.36561 -0.738615,-1.53298 -4.036008,-1.84092 -1.9945496,-0.18625 -5.5262996,-1.07083 -7.8485496,-1.96627 l -4.22219,-1.62805 -3.73515,1.55497 c -7.34146,3.05673 -18.4249,4.40005 -20.35723,2.46771 -1.12138,-1.12144 -1.13803,-1.9528 -0.0693,-3.47856 0.68766,-0.98177 1.68223,-1.25572 5.68009,-1.563 5.45878,-0.4196 11.56154,-2.09742 15.13642,-4.16138 2.89532,-1.67162 3.8173,-1.71564 6.15059,-0.29499 2.1823,1.32876 6.09778,2.65712 9.4797996,3.21612 l 2.51678,0.41607 -0.40382,-2.69066 c -0.58072,-3.87253 -2.97673,-12.85516 -4.7204296,-17.69535 -1.30358,-3.61855 -5.79075,-14.24626 -6.18366,-14.64619 -0.077,-0.0783 -2.05791,0.51237 -4.4025,1.31172 -8.6306,2.94337 -21.25935,4.16187 -23.18393,2.23729 -1.12133,-1.12125 -1.13816,-1.9531 -0.0704,-3.47753 0.70886,-1.01203 1.66981,-1.24479 6.46425,-1.56511 6.9732,-0.46591 15.90295,-2.51971 17.85805,-4.10751 0.0877,-0.0712 -1.39236,-2.7425 -3.28868,-5.93614 -10.37115,-17.4663 -17.08858,-35.10983 -20.49325,-53.82483 -1.54119,-8.47182 -1.41677,-23.82948 0.25659,-31.68806 1.53769,-7.22142 4.61402,-16.15866 7.6677,-22.27603 9.3579,-18.74641 26.7688296,-33.92594 46.572685,-40.60401 7.874826,-2.65546 19.462321,-4.27106 29.065649,-4.21739 z m 139.446574,16.09663 c 1.97353,0.0224 4.20289,0.43353 5.2144,0.96126 2.68094,1.39877 5.84962,5.23603 6.58802,7.97814 1.5785,5.86218 -1.79642,12.50771 -7.51036,14.78811 -2.29086,0.91428 -6.97522,0.70058 -9.46857,-0.4321 -1.26685,-0.5755 -3.11393,-1.97015 -4.10484,-3.09878 -7.02605,-8.00223 -1.36643,-20.31786 9.28135,-20.19663 z m 0.088,5.97934 c -6.56525,0 -9.10335,8.19091 -3.58151,11.55809 4.46179,2.72079 9.52673,-0.28131 9.52673,-5.64647 0,-3.62613 -2.29857,-5.91162 -5.94522,-5.91162 z M 61.368545,619.83616 c 1.438149,-0.0131 2.894637,0.26987 4.314482,0.86312 9.092549,3.79913 9.347727,16.22186 0.420366,20.46604 -3.145163,1.49496 -8.075211,1.19729 -10.772357,-0.65082 -5.516304,-3.77999 -6.775366,-11.70086 -2.61331,-16.4412 2.410433,-2.74531 5.486883,-4.20802 8.650819,-4.23714 z m -0.06565,5.78732 c -0.695473,0.0481 -1.442189,0.30795 -2.33008,0.76707 -3.481305,1.80029 -3.727602,6.96129 -0.428344,8.97305 2.501667,1.52539 4.067038,1.38935 6.227934,-0.54147 1.459203,-1.30375 1.847833,-2.10451 1.847833,-3.80771 0,-1.70316 -0.38863,-2.50387 -1.847833,-3.80769 -1.293235,-1.15548 -2.310406,-1.66349 -3.46951,-1.58325 z m 153.718805,7.10225 c 0.44235,0.2728 0.89145,0.53546 1.32402,0.82257 -0.43378,-0.0142 -0.86342,-0.0331 -1.34057,0 0.002,-0.3068 0.0115,-0.52951 0.0167,-0.82257 z M 4.5931996,640.63027 c 1.248357,0.1145 2.499341,1.24246 3.086499,3.20226 0.859271,2.86631 0.855854,4.29812 -0.01335,5.1669 -0.747427,0.74745 -2.150169,0.88682 -3.543664,0.35207 -1.336966,-0.513 -2.881851,-5.64857 -2.124698,-7.06329 0.654168,-1.22231 1.623769,-1.74659 2.59466,-1.65794 z m 29.2779744,40.24447 c 3.915291,0.19789 9.599433,4.3345 11.677562,8.87381 1.284656,2.80603 1.373755,3.41446 0.788455,5.36803 -0.363037,1.21172 -1.335353,2.73411 -2.160451,3.38308 -2.03531,1.60099 -5.071691,1.50083 -8.655091,-0.28484 -3.41987,-1.7042 -5.720874,-4.45736 -6.868071,-8.21823 -1.346758,-4.41488 0.06487,-7.8654 3.663664,-8.95541 0.471464,-0.14283 0.994605,-0.1947 1.553932,-0.16644 z m 55.742554,0.0352 c 0.01614,0.004 0.02915,0.0126 0.03516,0.0298 0.0918,0.26545 0.13622,0.54237 0.17017,0.82202 -0.07533,-0.0743 -0.145812,-0.15177 -0.214447,-0.23043 z m 18.596872,4.09789 c 0.0589,0.0867 0.11116,0.15954 0.1755,0.25818 -0.0727,-0.0365 -0.15657,-0.0388 -0.24485,-0.0283 0.0224,-0.0774 0.0487,-0.15036 0.0693,-0.22992 z m -73.43313,2.03028 c -0.975231,0 -0.615288,2.07912 0.63534,3.66902 0.659943,0.83901 1.939825,1.90823 2.844329,2.37595 2.077941,1.07469 2.276201,1.06509 2.276201,-0.10994 0,-1.00626 -4.779648,-5.93506 -5.75587,-5.93506 z m 82.59444,32.17404 c 0.0697,0.003 0.17226,0.008 0.24698,0.0118 -0.0973,0.0222 -0.17679,0.0342 -0.27364,0.056 0.007,-0.0238 0.0207,-0.0434 0.0267,-0.0678 z m 33.49217,5.06448 c -0.003,0.03 -0.007,0.0601 -0.01,0.0901 -0.0447,-0.008 -0.0945,-0.0148 -0.13921,-0.0229 0.0495,-0.0224 0.0992,-0.0448 0.14883,-0.0672 z m -78.64161,12.83836 c 1.391692,-0.10527 2.748287,0.39636 4.810037,1.57898 6.015598,3.45055 10.577891,10.25118 11.018765,16.42363 0.287403,4.02406 -0.868852,6.44493 -3.986407,8.34569 -3.612288,2.20246 -8.222185,0.86072 -12.812742,-3.72984 -6.996605,-6.99657 -7.938576,-18.84459 -1.732607,-21.7895 1.020298,-0.48416 1.867907,-0.76581 2.702954,-0.82896 z m -17.898587,3.51645 c 0.385348,0 0.771196,0.21804 1.436547,0.65399 1.174237,0.76939 1.43657,1.40555 1.43657,3.48499 0,1.81659 -0.287515,2.71148 -1.005554,3.12971 -1.605475,0.93512 -2.8842,0.71665 -3.846112,-0.65667 -1.411365,-2.01502 -1.153751,-4.84694 0.54198,-5.95803 0.665362,-0.43595 1.050976,-0.65399 1.436569,-0.65399 z m 18.739286,2.75736 c -0.615945,0.0213 -1.110387,0.37847 -1.481392,1.07169 -1.57168,2.93715 0.313687,7.91041 4.344371,11.45832 3.018899,2.65737 4.525605,3.16666 5.748893,1.94334 1.823286,-1.82322 -0.223687,-7.15719 -4.521978,-11.78372 -1.698379,-1.82817 -3.063309,-2.72522 -4.089894,-2.68963 z m 60.994271,15.51038 c 1.9e-4,0.0464 0,0.0928 0,0.1392 -0.009,-0.002 -0.0183,-0.004 -0.0273,-0.007 0.009,-0.0443 0.018,-0.0886 0.0267,-0.13282 z m 77.97592,44.75524 c -0.009,0.19058 -0.0118,0.38126 -0.0197,0.57184 l -0.15149,-0.15308 c 0.0503,-0.14279 0.12563,-0.27375 0.17124,-0.41876 z" />
    <path
       style="fill:#231512;fill-opacity:0.9;stroke:#ffcc00;stroke-width:0"
       d=""
       id="path35943"
       transform="matrix(0.26458333,0,0,0.26458333,-15.766019,-26.66334)" />
  </g>
</svg>
