<?xml version="1.0" encoding="UTF-8" standalone="no"?>
<!-- Created with Inkscape (http://www.inkscape.org/) -->

<svg
   width="79.887421mm"
   height="12.998025mm"
   viewBox="0 0 79.887421 12.998025"
   version="1.1"
   id="svg2272"
   inkscape:version="1.1.1 (3bf5ae0d25, 2021-09-20)"
   sodipodi:docname="kraken-text-logo.svg"
   xmlns:inkscape="http://www.inkscape.org/namespaces/inkscape"
   xmlns:sodipodi="http://sodipodi.sourceforge.net/DTD/sodipodi-0.dtd"
   xmlns="http://www.w3.org/2000/svg"
   xmlns:svg="http://www.w3.org/2000/svg">
  <sodipodi:namedview
     id="namedview2274"
     pagecolor="#ffffff"
     bordercolor="#666666"
     borderopacity="1.0"
     inkscape:pageshadow="2"
     inkscape:pageopacity="0.0"
     inkscape:pagecheckerboard="0"
     inkscape:document-units="mm"
     showgrid="false"
     inkscape:zoom="1.4289282"
     inkscape:cx="112.32195"
     inkscape:cy="-12.946767"
     inkscape:window-width="1920"
     inkscape:window-height="991"
     inkscape:window-x="-9"
     inkscape:window-y="-9"
     inkscape:window-maximized="1"
     inkscape:current-layer="layer1" />
  <defs
     id="defs2269" />
  <g
     inkscape:label="Lager 1"
     inkscape:groupmode="layer"
     id="layer1"
     transform="translate(-62.961089,-136.67119)">
    <path
       style="fill:#f9f9f9;stroke-width:0.0950921"
       d="m 64.854987,148.09006 c -0.12665,-0.20493 0.06281,-0.56303 0.402441,-0.76066 0.19234,-0.11192 0.443542,-0.2834 0.558224,-0.38107 0.208205,-0.17732 0.208542,-0.18374 0.226429,-4.33358 0.01269,-2.94338 -0.01292,-4.18683 -0.08776,-4.26168 -0.07751,-0.0775 -0.262836,-0.0764 -0.695283,0.004 -0.545192,0.10139 -0.634868,0.15604 -1.190537,0.72554 -0.562138,0.57613 -0.600933,0.64423 -0.600933,1.05491 0,0.42283 -0.0096,0.43791 -0.261503,0.40893 -0.195908,-0.0225 -0.256892,-0.0778 -0.243117,-0.22028 0.06873,-0.71083 0.439194,-3.05557 0.491594,-3.11136 0.03534,-0.0376 0.726697,-0.0198 1.536345,0.0396 1.111246,0.0816 1.821726,0.0807 2.898472,-0.003 0.78451,-0.0613 1.776334,-0.11116 2.204052,-0.11094 l 0.777669,3.6e-4 0.05909,0.54679 c 0.0325,0.30072 0.161794,1.01748 0.287323,1.59279 l 0.228236,1.04593 -0.246005,0.22064 -0.246004,0.22064 -0.308003,-0.60101 c -0.564049,-1.10064 -1.349218,-1.78966 -2.039375,-1.78966 -0.158986,0 -0.29411,0.0107 -0.300274,0.0238 -0.0062,0.0131 -0.03826,1.24333 -0.07132,2.7339 -0.05132,2.31376 -0.08333,2.74293 -0.218881,2.93434 -0.18399,0.25982 -0.143166,0.72792 0.108993,1.24972 0.08846,0.18305 0.213216,0.57626 0.277238,0.8738 0.137112,0.63722 0.381143,0.9818 0.82734,1.16823 0.255471,0.10674 0.324037,0.18984 0.324037,0.39272 v 0.25733 l -1.558642,-0.0639 c -0.894489,-0.0367 -1.656873,-0.0265 -1.789168,0.0238 -0.396628,0.1508 -1.282892,0.22928 -1.350671,0.11962 z m 9.001405,-1.22599 c -0.588383,-0.0167 -1.069788,-0.0561 -1.069788,-0.0876 0,-0.0315 0.106979,-0.15644 0.237731,-0.27762 0.22422,-0.2078 0.237731,-0.27653 0.237731,-1.20938 v -0.98906 l -0.72754,-0.0615 c -0.400146,-0.0338 -0.855759,-0.0615 -1.012474,-0.0615 h -0.284934 l 0.06592,1.01958 c 0.06634,1.02617 0.188405,1.35773 0.499839,1.35773 0.07035,0 0.1279,0.0642 0.1279,0.14264 0,0.11947 -0.20075,0.14263 -1.236199,0.14263 -0.989825,0 -1.236199,-0.0262 -1.236199,-0.1317 0,-0.0724 0.106978,-0.20179 0.23773,-0.28746 l 0.237731,-0.15577 v -2.17874 c 0,-1.19831 -0.04034,-2.28484 -0.08965,-2.41452 -0.0493,-0.12969 -0.17768,-0.26373 -0.285277,-0.29788 -0.108545,-0.0345 -0.195632,-0.1439 -0.195632,-0.24587 0,-0.16621 0.07217,-0.18377 0.755126,-0.18377 0.415319,0 0.782223,0.0438 0.815342,0.0974 0.03669,0.0594 0.243197,0.0732 0.52862,0.0353 0.524464,-0.0696 0.583148,0.006 0.225843,0.29161 -0.263218,0.21026 -0.417178,0.70842 -0.420817,1.36163 -0.0015,0.27258 -0.04941,0.42521 -0.144907,0.46186 -0.07845,0.0301 -0.142639,0.11434 -0.142639,0.1872 0,0.10587 0.229137,0.13246 1.141108,0.13246 h 1.141107 l -0.0014,-0.73696 c -0.0015,-0.80645 -0.125022,-1.16173 -0.454403,-1.30734 -0.118085,-0.0522 -0.201683,-0.15918 -0.185776,-0.23773 0.02421,-0.11954 0.228394,-0.1392 1.252889,-0.12063 0.673182,0.0122 1.247971,0.0462 1.277309,0.0755 0.02934,0.0293 -0.07336,0.15471 -0.228219,0.27862 l -0.281565,0.22528 0.01857,2.28699 c 0.01925,2.36969 0.06625,2.67429 0.412687,2.67429 0.102761,0 0.186839,0.0642 0.186839,0.14264 0,0.0802 -0.07285,0.13374 -0.166412,0.12231 -0.09153,-0.0112 -0.647816,-0.034 -1.236199,-0.0507 z m 1.973165,-0.12499 c 0,-0.0956 0.244549,-0.34241 0.456382,-0.46064 0.130437,-0.0728 0.17297,-0.28932 0.21989,-1.11943 0.03199,-0.56604 0.08401,-1.21104 0.11559,-1.43331 0.03354,-0.23607 0.01923,-0.40415 -0.0344,-0.40415 -0.0505,0 -0.09229,-0.22465 -0.09286,-0.49923 -0.0018,-0.88199 -0.09468,-1.21754 -0.369342,-1.3351 -0.338701,-0.14497 -0.336103,-0.14145 -0.213514,-0.28916 0.08541,-0.10291 0.546052,-0.13494 2.13943,-0.14875 l 2.030583,-0.0176 0.0576,0.50305 c 0.03168,0.27668 0.08623,0.66352 0.121232,0.85965 0.08082,0.45291 -0.09547,0.47969 -0.322269,0.049 -0.08909,-0.16921 -0.317422,-0.46875 -0.507397,-0.66565 -0.31566,-0.32716 -0.389368,-0.35787 -0.85583,-0.35654 -0.766678,0.002 -0.790684,0.0351 -0.82837,1.13563 -0.03787,1.10582 -0.03448,1.11004 0.806328,1.00499 0.475298,-0.0594 0.544176,-0.0966 0.637735,-0.34445 0.185127,-0.49046 0.299353,-0.24412 0.327485,0.70625 0.02295,0.77533 0.0043,0.91944 -0.118865,0.91944 -0.08304,0 -0.146082,-0.0827 -0.146082,-0.19158 0,-0.37785 -1.244409,-0.8592 -1.436695,-0.55573 -0.105104,0.16589 -0.110274,1.86144 -0.0059,1.92597 0.0434,0.0268 0.460617,0.0702 0.92715,0.0965 0.466532,0.0262 1.10499,0.11646 1.418794,0.2005 0.387871,0.10387 0.88356,0.1453 1.548137,0.12938 0.785318,-0.0188 1.007049,0.006 1.127403,0.1264 0.136365,0.13636 0.108349,0.1547 -0.311938,0.20412 -0.701066,0.0824 -6.690296,0.0471 -6.690296,-0.0395 z"
       id="path2596"
       inkscape:export-filename="C:\Users\madel\Desktop\kraken-logotype.png"
       inkscape:export-xdpi="96"
       inkscape:export-ydpi="96" />
    <path
       style="fill:#f9f9f9;stroke-width:0.0950921"
       d="m 93.597282,149.60161 c -1.113266,-0.28257 -2.620832,-1.50238 -4.102506,-3.31946 -0.630334,-0.77303 -2.023477,-2.86715 -2.25414,-3.38835 -0.09403,-0.21245 -0.259725,-0.46662 -0.368224,-0.56481 -0.193675,-0.17527 -0.206733,-0.17388 -0.716643,0.0762 l -0.519373,0.25473 v 0.74179 c 0,0.40798 -0.06543,0.993 -0.145405,1.30004 -0.139182,0.53436 -0.136412,0.58099 0.06471,1.08976 0.244922,0.61958 0.478515,0.86378 0.828194,0.8658 0.37674,0.002 0.523636,0.13168 0.455835,0.40183 -0.05626,0.22415 -0.09772,0.23572 -1.035113,0.28882 -0.537077,0.0304 -1.463661,0.16529 -2.059073,0.29971 -1.390862,0.31398 -1.437377,0.31315 -1.437377,-0.0258 0,-0.23194 0.0528,-0.28605 0.372609,-0.38186 0.592832,-0.17762 0.777999,-0.66773 0.88123,-2.33251 0.04577,-0.73816 0.07922,-1.44909 0.07432,-1.57984 -0.0049,-0.13075 -0.03005,-0.78397 -0.05589,-1.45159 -0.04319,-1.11589 -0.03117,-1.23607 0.148986,-1.48907 0.203254,-0.28544 0.183839,-0.52531 -0.04977,-0.61496 -0.102412,-0.0393 -0.135286,-0.24979 -0.135286,-0.86624 0,-0.99672 -0.157647,-1.44178 -0.540514,-1.52596 -0.147274,-0.0324 -0.321259,-0.0753 -0.386635,-0.0955 -0.130011,-0.0401 -0.167668,-0.61315 -0.04029,-0.61315 0.552897,0 2.231369,0.2421 2.476148,0.35715 0.294812,0.13857 0.327062,0.13792 0.408868,-0.008 0.04885,-0.0873 0.178,-0.1587 0.28701,-0.1587 0.10901,0 0.365006,-0.05 0.568881,-0.11106 0.439077,-0.13155 0.594273,-0.0319 0.504916,0.32409 -0.04783,0.19057 -0.137479,0.25287 -0.431553,0.2999 -0.633775,0.10134 -0.700125,0.30234 -0.740428,2.24304 -0.04928,2.37298 0.0367,2.40984 1.752315,0.75115 0.588621,-0.5691 1.11658,-1.03472 1.173242,-1.03472 0.05666,0 0.103021,-0.0884 0.103021,-0.19653 0,-0.10809 0.103647,-0.33275 0.230327,-0.49923 0.12668,-0.16649 0.259834,-0.42094 0.295898,-0.56546 0.05827,-0.23349 0.03204,-0.27443 -0.235569,-0.36772 -0.248812,-0.0867 -0.296099,-0.14849 -0.272125,-0.35535 0.02816,-0.24303 0.04576,-0.24956 0.599569,-0.22235 0.988975,0.0486 2.08069,0.0171 2.395496,-0.0691 0.358261,-0.0981 0.638786,0.0561 0.586478,0.32248 -0.03553,0.18093 -0.04964,0.19047 -0.747306,0.50515 -0.819973,0.36985 -3.13881,2.64927 -3.137743,3.08441 1.9e-4,0.0676 0.578519,1.16364 1.285231,2.43561 0.706711,1.27196 1.259011,2.3546 1.227332,2.40586 -0.118209,0.19126 0.24121,0.73334 0.555001,0.83705 0.174776,0.0578 0.655214,0.45165 1.111144,0.91096 0.44178,0.44505 0.998069,0.90424 1.236199,1.02043 0.584294,0.28508 1.62668,0.27935 2.429904,-0.0133 0.90654,-0.33035 0.896092,-0.3287 0.963973,-0.15181 0.03461,0.0902 0.0244,0.31594 -0.02261,0.50172 -0.07614,0.30072 -0.142924,0.35761 -0.608532,0.51832 -0.606857,0.20948 -2.408538,0.31049 -2.974725,0.16679 z m 28.388978,-1.90934 c -0.22182,-0.10979 -0.61611,-0.43247 -0.8762,-0.71705 -0.44873,-0.49097 -0.47185,-0.54221 -0.45253,-1.00253 0.0212,-0.50589 -0.14685,-0.73787 -0.24968,-0.3446 -0.0768,0.29348 -0.15051,0.2016 -0.73724,-0.91839 -0.57192,-1.09172 -1.60484,-2.79507 -1.61384,-2.66131 -0.003,0.0498 -0.001,0.81804 0.005,1.70715 0.0121,1.70812 0.0699,1.96309 0.47363,2.09123 0.39191,0.12439 0.19693,0.30247 -0.44916,0.41023 -0.87494,0.14594 -6.96551,0.13018 -6.96551,-0.018 1e-5,-0.0584 0.14701,-0.22342 0.32669,-0.36679 l 0.32669,-0.26066 0.0384,-0.97554 c 0.0211,-0.53654 0.0652,-1.1574 0.0979,-1.37967 0.0327,-0.22228 0.0214,-0.40415 -0.0252,-0.40415 -0.0466,0 -0.11509,-0.38868 -0.15225,-0.86374 -0.0635,-0.81228 -0.0824,-0.87008 -0.31619,-0.97018 -0.13674,-0.0585 -0.26032,-0.11304 -0.27463,-0.12111 -0.0143,-0.008 -0.001,-0.0791 0.0289,-0.1579 0.0464,-0.12082 0.38084,-0.14578 2.13905,-0.1596 l 2.08408,-0.0164 -0.0118,0.31483 c -0.007,0.17315 0.0423,0.5407 0.10858,0.81676 0.17735,0.7393 -0.024,0.80224 -0.37367,0.11682 -0.30029,-0.58863 -0.69687,-0.86134 -1.25255,-0.86134 -0.80535,0 -0.84229,0.0503 -0.84229,1.14744 0,1.09585 10e-4,1.09711 0.82121,0.99463 0.4753,-0.0594 0.54418,-0.0966 0.63773,-0.34445 0.18513,-0.49045 0.29936,-0.24411 0.32749,0.70626 0.0211,0.71087 -0.001,0.91944 -0.098,0.91944 -0.0689,0 -0.17273,-0.12582 -0.23077,-0.27959 -0.0868,-0.22996 -0.20114,-0.30739 -0.64403,-0.43614 -0.79547,-0.23126 -0.81361,-0.21125 -0.81361,0.89732 0,0.52156 0.0344,0.96957 0.0765,0.99558 0.0421,0.026 0.4593,0.0707 0.92715,0.0993 0.46786,0.0286 1.09879,0.11683 1.40206,0.19605 0.63759,0.16656 1.42385,0.18779 1.6895,0.0456 0.17477,-0.0935 0.18394,-0.22438 0.18394,-2.62512 v -2.52669 l -0.29554,-0.37314 c -0.16254,-0.20523 -0.42255,-0.43883 -0.5778,-0.51911 -0.25325,-0.13096 -0.30505,-0.13103 -0.50395,-7.2e-4 -0.19911,0.13047 -0.22742,0.13031 -0.27802,-0.001 -0.0794,-0.20689 -0.087,-0.19707 0.24311,-0.31217 0.42404,-0.14782 1.12723,-0.12938 1.6142,0.0423 0.4726,0.16664 1.12929,0.75692 1.12929,1.01509 0,0.0948 0.13807,0.25625 0.30682,0.35887 0.21388,0.13008 0.53152,0.56891 1.04864,1.44877 0.40801,0.69419 0.81553,1.42153 0.90561,1.61631 0.30958,0.6694 0.40151,0.46504 0.40151,-0.89257 0,-1.49808 -0.17266,-2.21185 -0.59285,-2.45077 -0.14398,-0.0819 -0.26204,-0.22373 -0.26238,-0.31526 -7.1e-4,-0.1473 0.10729,-0.16641 0.93868,-0.16641 0.70635,0 0.96778,0.0343 1.0542,0.13847 0.13844,0.16681 0.0499,0.34884 -0.13515,0.27783 -0.0742,-0.0285 -0.19584,0.0465 -0.27654,0.17057 -0.11773,0.18099 -0.14793,0.67283 -0.16545,2.69382 -0.0239,2.75726 -0.008,2.844 0.64037,3.5117 0.34796,0.35827 0.65306,0.42534 1.12269,0.24679 0.20433,-0.0777 0.24392,-0.0657 0.24392,0.0739 0,0.0917 -0.0666,0.26178 -0.14803,0.37802 -0.12588,0.17972 -0.23612,0.21133 -0.73696,0.21127 -0.40664,-6e-5 -0.71378,-0.0619 -0.99224,-0.19971 z m -11.80437,-0.59832 c -0.90769,-0.56514 -1.99842,-1.81421 -2.81141,-3.21954 -0.14371,-0.24843 -0.27662,-0.45169 -0.29534,-0.45169 -0.0187,0 -0.13801,0.0474 -0.26509,0.10528 -0.21477,0.0979 -0.23418,0.16657 -0.27531,0.9747 -0.0532,1.04592 0.01,1.25861 0.39662,1.34362 0.30041,0.066 0.37071,0.17849 0.18375,0.29403 -0.059,0.0365 -0.62597,0.0663 -1.25997,0.0664 -0.99936,1e-4 -1.15689,-0.0209 -1.18394,-0.15811 -0.0208,-0.1053 0.0669,-0.19245 0.26208,-0.26048 0.1772,-0.0618 0.30958,-0.18316 0.33447,-0.3067 0.0227,-0.11245 0.0682,-0.33283 0.10118,-0.48973 0.11103,-0.52822 0.13517,-1.27659 0.043,-1.33355 -0.0512,-0.0317 -0.0914,-0.62079 -0.0914,-1.33906 v -1.28256 l -0.28468,-0.16199 c -0.55811,-0.31759 -0.37118,-0.39972 0.90975,-0.39972 1.0758,0 1.1925,0.0162 1.16438,0.16224 -0.0172,0.0892 -0.138,0.18737 -0.26847,0.21807 -0.23247,0.0547 -0.23778,0.0763 -0.26423,1.07396 -0.0247,0.93065 -0.0122,1.01813 0.14589,1.01813 0.2615,0 1.64031,-1.47958 1.64031,-1.76019 0,-0.071 -0.11768,-0.14256 -0.2615,-0.15911 -0.15568,-0.0179 -0.26151,-0.0878 -0.26151,-0.17273 0,-0.11718 0.19945,-0.14742 1.11734,-0.16943 0.94754,-0.0227 1.11733,-0.005 1.11733,0.11759 0,0.0794 -0.15053,0.20728 -0.33451,0.28414 -0.44037,0.18401 -1.66243,1.3822 -1.66243,1.62998 0,0.20044 1.09658,1.91038 1.54525,2.40955 0.14383,0.16002 0.41665,0.49458 0.60628,0.74346 0.5733,0.75244 0.89446,0.92756 1.7064,0.93046 0.75369,0.003 0.8934,0.0576 0.70976,0.27887 -0.1687,0.20327 -0.71762,0.33595 -1.3821,0.33407 -0.4803,-10e-4 -0.65143,-0.052 -1.08187,-0.31997 z m -11.515381,0.12352 c -0.286297,-0.0499 -0.558697,-0.12888 -0.60534,-0.17552 -0.04664,-0.0466 -0.325897,-0.0616 -0.620572,-0.0332 -0.370279,0.0357 -0.506396,0.021 -0.440676,-0.0475 0.0523,-0.0545 0.200447,-0.11342 0.329207,-0.13093 0.210726,-0.0286 0.169272,-0.0827 -0.414889,-0.54111 -0.35695,-0.2801 -0.9758,-0.8546 -1.37522,-1.27665 -0.399423,-0.42205 -0.93454,-0.96972 -1.189149,-1.21704 -0.530264,-0.51508 -0.512459,-0.68321 0.06915,-0.65299 0.898969,0.0467 1.01188,-0.0601 1.01188,-0.9575 0,-0.85664 -0.215147,-1.14274 -0.908972,-1.20873 -0.381712,-0.0363 -0.518929,-0.006 -0.731369,0.16176 l -0.261506,0.20644 v 1.85045 c 0,2.06997 0.06869,2.3931 0.563064,2.64875 0.16102,0.0833 0.292767,0.18897 0.292767,0.23489 0,0.0944 -1.749059,0.2308 -2.328969,0.18157 -0.455995,-0.0387 -0.582918,-0.31112 -0.210865,-0.45257 0.332297,-0.12634 0.375671,-0.29429 0.425585,-1.6479 0.0265,-0.71859 0.0836,-1.21243 0.140199,-1.21243 0.05548,0 0.04783,-0.0574 -0.01826,-0.13707 -0.06257,-0.0754 -0.156588,-0.44981 -0.208937,-0.83205 -0.06756,-0.49333 -0.157362,-0.76398 -0.309468,-0.93273 -0.117858,-0.13075 -0.196258,-0.31701 -0.174221,-0.41391 0.03766,-0.1656 0.152333,-0.17416 1.909282,-0.14263 1.823285,0.0327 1.879736,0.0397 2.297134,0.28599 0.849847,0.50138 1.111931,0.97059 0.934882,1.67372 -0.07666,0.30442 -0.238153,0.5677 -0.522894,0.85244 -0.226594,0.22659 -0.409624,0.44295 -0.406734,0.4808 0.0029,0.0379 0.227542,0.22886 0.499233,0.42446 0.271692,0.19561 0.774344,0.68771 1.117011,1.09356 0.342662,0.40586 0.682428,0.73792 0.755028,0.73792 0.216459,0 0.576939,-1.07595 0.691546,-2.06406 0.0976,-0.84184 0.0922,-0.93942 -0.0625,-1.11026 -0.23504,-0.25971 -0.16264,-0.52745 0.152477,-0.56393 0.16041,-0.0186 0.27978,-0.10411 0.31937,-0.22886 0.0348,-0.10957 0.37911,-0.51305 0.765187,-0.89663 l 0.70197,-0.69742 1.67076,0.003 c 1.26103,0.003 1.6615,0.0314 1.63299,0.118 -0.0208,0.0631 -0.13033,0.12838 -0.24345,0.14503 -0.2191,0.0322 -0.49262,0.35137 -0.49262,0.57473 0,0.0741 -0.0732,0.18828 -0.16265,0.2537 -0.13299,0.0973 -0.14347,0.16103 -0.0574,0.34984 0.0579,0.127 0.0833,0.34565 0.0565,0.48588 -0.0301,0.15712 -0.007,0.25496 0.0607,0.25496 0.0777,0 0.10492,0.35645 0.0938,1.22877 -0.0142,1.11756 0.003,1.25957 0.19476,1.56918 0.11571,0.18723 0.3157,0.36685 0.44441,0.39916 0.12871,0.0323 0.21795,0.10711 0.19831,0.16625 -0.0237,0.0712 -0.47477,0.11645 -1.33543,0.13397 -1.15351,0.0235 -1.29973,0.009 -1.29973,-0.12996 0,-0.10793 0.0571,-0.14147 0.18431,-0.10821 0.13929,0.0364 0.2225,-0.0323 0.34075,-0.28149 0.12618,-0.26591 0.14363,-0.48348 0.0902,-1.12462 l -0.0662,-0.79494 -0.85227,-0.19623 c -1.06367,-0.2449 -1.11073,-0.24418 -1.15899,0.0177 -0.0217,0.11768 -0.0903,0.4921 -0.152377,0.83206 -0.11607,0.63519 -0.28267,0.92082 -0.98081,1.68157 l -0.365067,0.39783 0.24539,0.16078 c 0.343197,0.22488 0.970707,0.26958 1.497594,0.10668 0.47115,-0.14567 0.55181,-0.12804 0.55181,0.12063 0,0.30655 -1.376387,0.53376 -2.279744,0.37633 z m 3.450041,-5.62527 -0.0537,-0.54679 h -0.39746 c -0.2186,0 -0.46613,0.0535 -0.55006,0.11887 -0.23619,0.18396 -0.64449,0.8386 -0.64449,1.03332 0,0.20094 0.43997,0.52288 0.66297,0.4851 0.0827,-0.014 0.3204,0.0337 0.52822,0.1061 l 0.37784,0.13157 0.0652,-0.3907 c 0.0359,-0.21488 0.041,-0.63675 0.0115,-0.93747 z"
       id="path2705"
       inkscape:export-filename="C:\Users\madel\Desktop\kraken-logotype.png"
       inkscape:export-xdpi="96"
       inkscape:export-ydpi="96" />
    <path
       style="fill:#f9f9f9;stroke-width:0.0950921"
       d="m 134.89104,148.636 c -0.22182,-0.1098 -0.61611,-0.43247 -0.8762,-0.71705 -0.44872,-0.49098 -0.47185,-0.54221 -0.45253,-1.00253 0.0134,-0.31809 -0.0206,-0.49954 -0.0985,-0.527 -0.0654,-0.023 -0.11886,0.0233 -0.11886,0.10306 0,0.37997 -0.21273,0.17936 -0.61524,-0.58018 -0.59154,-1.11624 -1.70086,-2.97005 -1.74867,-2.92224 -0.0211,0.0211 -0.0303,0.77803 -0.0205,1.68207 0.0189,1.73497 0.0768,1.99037 0.48002,2.11836 0.10599,0.0336 0.19271,0.12247 0.19271,0.1974 0,0.1056 -0.15501,0.13652 -0.68941,0.13753 -0.37918,7.5e-4 -0.7857,0.0271 -0.90338,0.0586 -0.27903,0.0748 -0.29143,-0.17541 -0.0177,-0.35739 0.19039,-0.12658 0.19597,-0.20524 0.18741,-2.64022 l -0.009,-2.50976 -0.29276,-0.36965 c -0.38036,-0.48024 -0.7763,-0.69147 -1.0358,-0.55259 -0.1919,0.1027 -0.37755,0.057 -0.37755,-0.0929 0,-0.1317 0.56777,-0.28896 1.04327,-0.28896 0.24438,0 0.63634,0.0654 0.87101,0.14538 0.48815,0.16633 1.12867,0.73938 1.12867,1.00977 0,0.10681 0.13416,0.26171 0.32335,0.37333 0.24818,0.14643 0.52451,0.54245 1.18865,1.70346 0.47592,0.83198 0.86531,1.55772 0.86531,1.61277 0,0.055 0.0642,0.10008 0.14264,0.10008 0.11985,0 0.14271,-0.20888 0.14311,-1.30751 7.2e-4,-1.51864 -0.1546,-2.14394 -0.5942,-2.39482 -0.14349,-0.0819 -0.26117,-0.22379 -0.2615,-0.31531 -7.2e-4,-0.1473 0.10729,-0.16642 0.93868,-0.16642 0.70634,0 0.96777,0.0343 1.0542,0.13848 0.13843,0.16681 0.0499,0.34884 -0.13515,0.27783 -0.0743,-0.0285 -0.19585,0.0465 -0.27654,0.17056 -0.11804,0.18146 -0.14713,0.66757 -0.16124,2.69382 -0.018,2.59285 -0.004,2.70391 0.42792,3.27861 0.40131,0.53453 0.93696,0.71714 1.39091,0.47419 0.15041,-0.0805 0.18394,-0.067 0.18394,0.0739 0,0.0948 -0.0666,0.26747 -0.14803,0.38371 -0.12589,0.17973 -0.23613,0.21133 -0.73697,0.21127 -0.40664,-5e-5 -0.71377,-0.0619 -0.99224,-0.19971 z m 6.10884,0.0185 c -0.37172,-0.17311 -1.16614,-0.92506 -1.35375,-1.28136 -0.0627,-0.11902 -0.0615,-0.26558 0.004,-0.43767 0.10231,-0.27106 0.0422,-0.57206 -0.11424,-0.57206 -0.0504,0 -0.11883,0.0856 -0.15203,0.19019 -0.0332,0.1046 -0.0909,0.19018 -0.1282,0.19018 -0.0373,0 -0.231,-0.33163 -0.43044,-0.73696 -0.45773,-0.93028 -1.675,-2.97163 -1.77199,-2.97163 -0.0402,0 -0.0517,0.73815 -0.0255,1.64034 0.0498,1.72048 0.12563,2.03741 0.51155,2.13832 0.0993,0.026 0.1805,0.10215 0.1805,0.16929 0,0.0878 -0.24735,0.13314 -0.8796,0.1614 -0.48378,0.0216 -0.91627,0.008 -0.96109,-0.0292 -0.0448,-0.0377 0.0301,-0.14163 0.16641,-0.23097 l 0.2479,-0.16243 v -2.52023 -2.52023 l -0.29738,-0.34537 c -0.39822,-0.46249 -0.82073,-0.6972 -1.04194,-0.57882 -0.23922,0.12803 -0.37235,0.11282 -0.37235,-0.0425 0,-0.30634 1.10566,-0.44585 1.82513,-0.23029 0.42163,0.12633 1.21783,0.78008 1.21783,0.99996 0,0.0796 0.20326,0.3434 0.45169,0.58624 0.24843,0.24285 0.57987,0.6769 0.73654,0.96455 1.08423,1.9907 1.28172,2.32455 1.35006,2.28222 0.0422,-0.0262 0.066,-0.66803 0.053,-1.42639 -0.0275,-1.59018 -0.15981,-2.10507 -0.59967,-2.33253 -0.17727,-0.0917 -0.25423,-0.19124 -0.21892,-0.28325 0.081,-0.21114 1.76519,-0.20397 1.97757,0.008 0.16827,0.16826 0.11607,0.34321 -0.08,0.26798 -0.07,-0.0269 -0.19703,0.0208 -0.28223,0.10604 -0.13087,0.13088 -0.15858,0.44512 -0.17867,2.02618 -0.0459,3.61597 -0.0664,3.47876 0.63244,4.23496 0.30128,0.32599 0.37875,0.36204 0.69719,0.32444 0.19704,-0.0233 0.43954,-0.0777 0.5389,-0.12087 0.16129,-0.0702 0.17321,-0.0489 0.11122,0.19803 -0.0382,0.15214 -0.11401,0.33034 -0.16851,0.39601 -0.15402,0.18557 -1.19775,0.14628 -1.64483,-0.0619 z m -16.02305,-0.28637 c 0,-0.048 -0.0252,-0.15286 -0.0559,-0.23297 -0.0391,-0.10204 0.044,-0.18738 0.27763,-0.285 0.18343,-0.0766 0.37975,-0.22575 0.43626,-0.33134 0.069,-0.1289 0.10274,-1.5229 0.10274,-4.24271 0,-3.43016 -0.0224,-4.10435 -0.14626,-4.40079 -0.19798,-0.47382 -0.4099,-0.68984 -0.67676,-0.68984 -0.22834,0 -0.28964,-0.19112 -0.16527,-0.51523 0.0868,-0.22621 2.12781,-0.21828 2.51387,0.01 0.22286,0.13165 0.3152,0.14012 0.51837,0.0476 0.13597,-0.0619 0.43777,-0.11264 0.67066,-0.11264 0.35949,0 0.42344,0.0286 0.42344,0.18944 0,0.12564 -0.12002,0.24595 -0.35639,0.35725 -0.48552,0.22861 -0.60212,0.62 -0.66509,2.23255 -0.0424,1.08545 -0.0768,1.31409 -0.20417,1.35745 -0.0842,0.0287 -0.22738,0.15449 -0.31806,0.27956 -0.15148,0.20895 -0.15296,0.25593 -0.0182,0.57854 0.0807,0.19311 0.22534,0.37168 0.32145,0.39681 0.18632,0.0487 0.17172,-0.0863 0.34372,3.17963 0.0674,1.2803 0.21499,1.64012 0.72667,1.77202 0.21708,0.0559 0.32196,0.14429 0.34306,0.28893 l 0.0304,0.20834 h -2.0511 c -1.1822,0 -2.05109,-0.037 -2.05109,-0.0873 z"
       id="path2814"
       inkscape:export-filename="C:\Users\madel\Desktop\kraken-logotype.png"
       inkscape:export-xdpi="96"
       inkscape:export-ydpi="96" />
  </g>
</svg>
